<mxfile host="65bd71144e">
    <diagram id="aJs2Sz6I4LSr8sPXDzw9" name="Review Recipe">
        <mxGraphModel dx="922" dy="736" grid="1" gridSize="10" guides="1" tooltips="1" connect="1" arrows="1" fold="1" page="1" pageScale="1" pageWidth="827" pageHeight="1169" math="0" shadow="0">
            <root>
                <mxCell id="0"/>
                <mxCell id="1" parent="0"/>
                <mxCell id="162" value="" style="shape=umlLifeline;participant=umlActor;perimeter=lifelinePerimeter;whiteSpace=wrap;html=1;container=1;collapsible=0;recursiveResize=0;verticalAlign=top;spacingTop=36;outlineConnect=0;" vertex="1" parent="1">
                    <mxGeometry x="60" y="90" width="20" height="550" as="geometry"/>
                </mxCell>
                <mxCell id="163" value="" style="html=1;points=[];perimeter=orthogonalPerimeter;" vertex="1" parent="162">
                    <mxGeometry x="5" y="80" width="10" height="100" as="geometry"/>
                </mxCell>
                <mxCell id="164" value="" style="html=1;points=[];perimeter=orthogonalPerimeter;" vertex="1" parent="162">
                    <mxGeometry x="5" y="200" width="10" height="160" as="geometry"/>
                </mxCell>
                <mxCell id="206" value="" style="html=1;points=[];perimeter=orthogonalPerimeter;" vertex="1" parent="162">
                    <mxGeometry x="5" y="370" width="10" height="160" as="geometry"/>
                </mxCell>
                <mxCell id="165" value="Recipes Page" style="shape=umlLifeline;perimeter=lifelinePerimeter;whiteSpace=wrap;html=1;container=1;collapsible=0;recursiveResize=0;outlineConnect=0;" vertex="1" parent="1">
                    <mxGeometry x="210" y="90" width="100" height="550" as="geometry"/>
                </mxCell>
                <mxCell id="166" value="" style="html=1;points=[];perimeter=orthogonalPerimeter;" vertex="1" parent="165">
                    <mxGeometry x="45" y="80" width="10" height="90" as="geometry"/>
                </mxCell>
                <mxCell id="167" value="" style="html=1;points=[];perimeter=orthogonalPerimeter;" vertex="1" parent="165">
                    <mxGeometry x="45" y="200" width="10" height="160" as="geometry"/>
                </mxCell>
                <mxCell id="207" value="" style="html=1;points=[];perimeter=orthogonalPerimeter;" vertex="1" parent="165">
                    <mxGeometry x="45" y="370" width="10" height="160" as="geometry"/>
                </mxCell>
                <mxCell id="168" value="API" style="shape=umlLifeline;perimeter=lifelinePerimeter;whiteSpace=wrap;html=1;container=1;collapsible=0;recursiveResize=0;outlineConnect=0;" vertex="1" parent="1">
                    <mxGeometry x="370" y="90" width="100" height="550" as="geometry"/>
                </mxCell>
                <mxCell id="169" value="" style="html=1;points=[];perimeter=orthogonalPerimeter;" vertex="1" parent="168">
                    <mxGeometry x="44" y="80" width="10" height="100" as="geometry"/>
                </mxCell>
                <mxCell id="170" value="" style="html=1;points=[];perimeter=orthogonalPerimeter;" vertex="1" parent="168">
                    <mxGeometry x="44" y="200" width="10" height="160" as="geometry"/>
                </mxCell>
                <mxCell id="208" value="" style="html=1;points=[];perimeter=orthogonalPerimeter;" vertex="1" parent="168">
                    <mxGeometry x="45" y="370" width="10" height="160" as="geometry"/>
                </mxCell>
                <mxCell id="171" value="Database" style="shape=umlLifeline;perimeter=lifelinePerimeter;whiteSpace=wrap;html=1;container=1;collapsible=0;recursiveResize=0;outlineConnect=0;" vertex="1" parent="1">
                    <mxGeometry x="540" y="90" width="100" height="550" as="geometry"/>
                </mxCell>
                <mxCell id="172" value="" style="html=1;points=[];perimeter=orthogonalPerimeter;" vertex="1" parent="171">
                    <mxGeometry x="45" y="80" width="10" height="100" as="geometry"/>
                </mxCell>
                <mxCell id="173" value="" style="html=1;points=[];perimeter=orthogonalPerimeter;" vertex="1" parent="171">
                    <mxGeometry x="45" y="200" width="10" height="160" as="geometry"/>
                </mxCell>
                <mxCell id="209" value="" style="html=1;points=[];perimeter=orthogonalPerimeter;" vertex="1" parent="171">
                    <mxGeometry x="45" y="370" width="10" height="160" as="geometry"/>
                </mxCell>
                <mxCell id="174" style="edgeStyle=none;html=1;" edge="1" parent="1" source="163" target="166">
                    <mxGeometry relative="1" as="geometry">
                        <Array as="points">
                            <mxPoint x="180" y="180"/>
                        </Array>
                    </mxGeometry>
                </mxCell>
                <mxCell id="175" value="Navigate to recipes page" style="edgeLabel;html=1;align=center;verticalAlign=middle;resizable=0;points=[];" connectable="0" vertex="1" parent="174">
                    <mxGeometry x="-0.05" y="1" relative="1" as="geometry">
                        <mxPoint as="offset"/>
                    </mxGeometry>
                </mxCell>
                <mxCell id="176" style="edgeStyle=none;html=1;" edge="1" parent="1" source="169" target="171">
                    <mxGeometry relative="1" as="geometry">
                        <Array as="points">
                            <mxPoint x="510" y="210"/>
                        </Array>
                    </mxGeometry>
                </mxCell>
                <mxCell id="177" value="Retrieve list of receipes" style="edgeLabel;html=1;align=center;verticalAlign=middle;resizable=0;points=[];" connectable="0" vertex="1" parent="176">
                    <mxGeometry x="-0.2283" y="-1" relative="1" as="geometry">
                        <mxPoint x="16" y="-1" as="offset"/>
                    </mxGeometry>
                </mxCell>
                <mxCell id="178" style="edgeStyle=none;html=1;" edge="1" parent="1" source="166" target="168">
                    <mxGeometry relative="1" as="geometry">
                        <Array as="points">
                            <mxPoint x="340" y="200"/>
                        </Array>
                        <mxPoint x="400" y="200" as="targetPoint"/>
                    </mxGeometry>
                </mxCell>
                <mxCell id="179" value="Query available recipes" style="edgeLabel;html=1;align=center;verticalAlign=middle;resizable=0;points=[];" connectable="0" vertex="1" parent="178">
                    <mxGeometry x="-0.1974" y="4" relative="1" as="geometry">
                        <mxPoint x="13" as="offset"/>
                    </mxGeometry>
                </mxCell>
                <mxCell id="180" style="edgeStyle=none;html=1;" edge="1" parent="1" source="172" target="168">
                    <mxGeometry relative="1" as="geometry">
                        <Array as="points">
                            <mxPoint x="500" y="230"/>
                        </Array>
                    </mxGeometry>
                </mxCell>
                <mxCell id="181" value="Return list of recipes" style="edgeLabel;html=1;align=center;verticalAlign=middle;resizable=0;points=[];" connectable="0" vertex="1" parent="180">
                    <mxGeometry x="0.1061" y="-1" relative="1" as="geometry">
                        <mxPoint x="7" as="offset"/>
                    </mxGeometry>
                </mxCell>
                <mxCell id="182" style="edgeStyle=none;html=1;" edge="1" parent="1" source="169" target="165">
                    <mxGeometry relative="1" as="geometry">
                        <Array as="points">
                            <mxPoint x="340" y="240"/>
                        </Array>
                    </mxGeometry>
                </mxCell>
                <mxCell id="183" value="Return list of recipes" style="edgeLabel;html=1;align=center;verticalAlign=middle;resizable=0;points=[];" connectable="0" vertex="1" parent="182">
                    <mxGeometry x="0.0874" y="2" relative="1" as="geometry">
                        <mxPoint as="offset"/>
                    </mxGeometry>
                </mxCell>
                <mxCell id="184" style="edgeStyle=none;html=1;" edge="1" parent="1" source="166" target="162">
                    <mxGeometry relative="1" as="geometry">
                        <Array as="points">
                            <mxPoint x="170" y="250"/>
                        </Array>
                    </mxGeometry>
                </mxCell>
                <mxCell id="185" value="Display list of recipes" style="edgeLabel;html=1;align=center;verticalAlign=middle;resizable=0;points=[];" connectable="0" vertex="1" parent="184">
                    <mxGeometry x="0.0458" y="2" relative="1" as="geometry">
                        <mxPoint as="offset"/>
                    </mxGeometry>
                </mxCell>
                <mxCell id="186" style="edgeStyle=none;html=1;" edge="1" parent="1" source="164" target="165">
                    <mxGeometry relative="1" as="geometry">
                        <Array as="points">
                            <mxPoint x="170" y="310"/>
                        </Array>
                    </mxGeometry>
                </mxCell>
                <mxCell id="187" value="Select a recipe" style="edgeLabel;html=1;align=center;verticalAlign=middle;resizable=0;points=[];" vertex="1" connectable="0" parent="186">
                    <mxGeometry x="-0.3171" y="-1" relative="1" as="geometry">
                        <mxPoint x="22" as="offset"/>
                    </mxGeometry>
                </mxCell>
                <mxCell id="188" style="edgeStyle=none;html=1;" edge="1" parent="1" source="167" target="170">
                    <mxGeometry relative="1" as="geometry">
                        <Array as="points">
                            <mxPoint x="340" y="320"/>
                        </Array>
                    </mxGeometry>
                </mxCell>
                <mxCell id="189" value="Query recipe details" style="edgeLabel;html=1;align=center;verticalAlign=middle;resizable=0;points=[];" vertex="1" connectable="0" parent="188">
                    <mxGeometry x="-0.302" y="3" relative="1" as="geometry">
                        <mxPoint x="23" as="offset"/>
                    </mxGeometry>
                </mxCell>
                <mxCell id="190" style="edgeStyle=none;html=1;" edge="1" parent="1" source="170" target="171">
                    <mxGeometry relative="1" as="geometry">
                        <Array as="points">
                            <mxPoint x="510" y="330"/>
                        </Array>
                    </mxGeometry>
                </mxCell>
                <mxCell id="191" value="Retrieve recipe details" style="edgeLabel;html=1;align=center;verticalAlign=middle;resizable=0;points=[];" vertex="1" connectable="0" parent="190">
                    <mxGeometry x="-0.1782" y="-1" relative="1" as="geometry">
                        <mxPoint x="18" y="-1" as="offset"/>
                    </mxGeometry>
                </mxCell>
                <mxCell id="192" style="edgeStyle=none;html=1;" edge="1" parent="1" source="173" target="168">
                    <mxGeometry relative="1" as="geometry">
                        <Array as="points">
                            <mxPoint x="510" y="350"/>
                        </Array>
                    </mxGeometry>
                </mxCell>
                <mxCell id="193" value="Return recipe details" style="edgeLabel;html=1;align=center;verticalAlign=middle;resizable=0;points=[];" vertex="1" connectable="0" parent="192">
                    <mxGeometry x="0.1601" relative="1" as="geometry">
                        <mxPoint x="21" as="offset"/>
                    </mxGeometry>
                </mxCell>
                <mxCell id="194" style="edgeStyle=none;html=1;" edge="1" parent="1" source="170" target="165">
                    <mxGeometry relative="1" as="geometry">
                        <Array as="points">
                            <mxPoint x="340" y="370"/>
                        </Array>
                    </mxGeometry>
                </mxCell>
                <mxCell id="195" value="Display recipe details" style="edgeLabel;html=1;align=center;verticalAlign=middle;resizable=0;points=[];" vertex="1" connectable="0" parent="194">
                    <mxGeometry x="0.2039" y="3" relative="1" as="geometry">
                        <mxPoint x="19" y="-13" as="offset"/>
                    </mxGeometry>
                </mxCell>
                <mxCell id="196" style="edgeStyle=none;html=1;" edge="1" parent="1" source="167" target="162">
                    <mxGeometry relative="1" as="geometry">
                        <Array as="points">
                            <mxPoint x="150" y="380"/>
                        </Array>
                    </mxGeometry>
                </mxCell>
                <mxCell id="197" value="User views recipe details" style="edgeLabel;html=1;align=center;verticalAlign=middle;resizable=0;points=[];" vertex="1" connectable="0" parent="196">
                    <mxGeometry x="0.3369" relative="1" as="geometry">
                        <mxPoint x="29" as="offset"/>
                    </mxGeometry>
                </mxCell>
                <mxCell id="198" style="edgeStyle=none;html=1;" edge="1" parent="1" source="167" target="168">
                    <mxGeometry relative="1" as="geometry">
                        <Array as="points">
                            <mxPoint x="350" y="400"/>
                        </Array>
                    </mxGeometry>
                </mxCell>
                <mxCell id="199" value="Update recipe view count" style="edgeLabel;html=1;align=center;verticalAlign=middle;resizable=0;points=[];" vertex="1" connectable="0" parent="198">
                    <mxGeometry x="-0.2751" y="3" relative="1" as="geometry">
                        <mxPoint x="19" y="3" as="offset"/>
                    </mxGeometry>
                </mxCell>
                <mxCell id="200" style="edgeStyle=none;html=1;" edge="1" parent="1" source="170" target="173">
                    <mxGeometry relative="1" as="geometry">
                        <Array as="points">
                            <mxPoint x="510" y="420"/>
                        </Array>
                    </mxGeometry>
                </mxCell>
                <mxCell id="201" value="Update recipe view count" style="edgeLabel;html=1;align=center;verticalAlign=middle;resizable=0;points=[];" vertex="1" connectable="0" parent="200">
                    <mxGeometry x="-0.3043" relative="1" as="geometry">
                        <mxPoint x="20" as="offset"/>
                    </mxGeometry>
                </mxCell>
                <mxCell id="211" style="edgeStyle=none;html=1;" edge="1" parent="1" source="206" target="165">
                    <mxGeometry relative="1" as="geometry">
                        <Array as="points">
                            <mxPoint x="160" y="480"/>
                        </Array>
                    </mxGeometry>
                </mxCell>
                <mxCell id="212" value="Clicks &quot;Review&quot; button" style="edgeLabel;html=1;align=center;verticalAlign=middle;resizable=0;points=[];" vertex="1" connectable="0" parent="211">
                    <mxGeometry x="-0.2867" y="-2" relative="1" as="geometry">
                        <mxPoint x="19" as="offset"/>
                    </mxGeometry>
                </mxCell>
                <mxCell id="213" style="edgeStyle=none;html=1;" edge="1" parent="1" source="207" target="162">
                    <mxGeometry relative="1" as="geometry">
                        <Array as="points">
                            <mxPoint x="170" y="510"/>
                        </Array>
                    </mxGeometry>
                </mxCell>
                <mxCell id="214" value="Displays the review form" style="edgeLabel;html=1;align=center;verticalAlign=middle;resizable=0;points=[];" vertex="1" connectable="0" parent="213">
                    <mxGeometry x="0.339" y="2" relative="1" as="geometry">
                        <mxPoint x="29" as="offset"/>
                    </mxGeometry>
                </mxCell>
                <mxCell id="215" style="edgeStyle=none;html=1;" edge="1" parent="1" source="206" target="165">
                    <mxGeometry relative="1" as="geometry">
                        <Array as="points">
                            <mxPoint x="170" y="540"/>
                        </Array>
                    </mxGeometry>
                </mxCell>
                <mxCell id="216" value="Enters and submits review" style="edgeLabel;html=1;align=center;verticalAlign=middle;resizable=0;points=[];" vertex="1" connectable="0" parent="215">
                    <mxGeometry x="-0.33" y="4" relative="1" as="geometry">
                        <mxPoint x="23" as="offset"/>
                    </mxGeometry>
                </mxCell>
                <mxCell id="218" style="edgeStyle=none;html=1;" edge="1" parent="1" source="207" target="168">
                    <mxGeometry relative="1" as="geometry">
                        <Array as="points">
                            <mxPoint x="340" y="560"/>
                        </Array>
                    </mxGeometry>
                </mxCell>
                <mxCell id="219" value="Adds review to the reviews" style="edgeLabel;html=1;align=center;verticalAlign=middle;resizable=0;points=[];" vertex="1" connectable="0" parent="218">
                    <mxGeometry x="-0.3682" relative="1" as="geometry">
                        <mxPoint x="26" as="offset"/>
                    </mxGeometry>
                </mxCell>
                <mxCell id="220" style="edgeStyle=none;html=1;" edge="1" parent="1" source="208" target="171">
                    <mxGeometry relative="1" as="geometry">
                        <Array as="points">
                            <mxPoint x="510" y="580"/>
                        </Array>
                    </mxGeometry>
                </mxCell>
                <mxCell id="221" value="Updates the receipes&amp;nbsp;&lt;br&gt;overall rating and&amp;nbsp;&lt;br&gt;reviews" style="edgeLabel;html=1;align=center;verticalAlign=middle;resizable=0;points=[];" vertex="1" connectable="0" parent="220">
                    <mxGeometry x="-0.1878" y="-1" relative="1" as="geometry">
                        <mxPoint x="8" y="-1" as="offset"/>
                    </mxGeometry>
                </mxCell>
                <mxCell id="223" style="edgeStyle=none;html=1;" edge="1" parent="1" source="207" target="162">
                    <mxGeometry relative="1" as="geometry">
                        <Array as="points">
                            <mxPoint x="160" y="610"/>
                        </Array>
                    </mxGeometry>
                </mxCell>
                <mxCell id="224" value="Displays the updated recipe" style="edgeLabel;html=1;align=center;verticalAlign=middle;resizable=0;points=[];" vertex="1" connectable="0" parent="223">
                    <mxGeometry x="0.2851" y="-2" relative="1" as="geometry">
                        <mxPoint x="34" as="offset"/>
                    </mxGeometry>
                </mxCell>
                <mxCell id="225" style="edgeStyle=none;html=1;" edge="1" parent="1" source="207" target="168">
                    <mxGeometry relative="1" as="geometry">
                        <Array as="points">
                            <mxPoint x="350" y="490"/>
                        </Array>
                    </mxGeometry>
                </mxCell>
                <mxCell id="226" value="Check if logged in" style="edgeLabel;html=1;align=center;verticalAlign=middle;resizable=0;points=[];" vertex="1" connectable="0" parent="225">
                    <mxGeometry x="-0.187" y="1" relative="1" as="geometry">
                        <mxPoint x="12" as="offset"/>
                    </mxGeometry>
                </mxCell>
            </root>
        </mxGraphModel>
    </diagram>
    <diagram id="hTyJS5LmAECZcoGtqKK6" name="Posting in a thread">
        <mxGraphModel dx="922" dy="736" grid="1" gridSize="10" guides="1" tooltips="1" connect="1" arrows="1" fold="1" page="1" pageScale="1" pageWidth="827" pageHeight="1169" math="0" shadow="0">
            <root>
                <mxCell id="vUb1ace9YoxmA2BbM57C-0"/>
                <mxCell id="vUb1ace9YoxmA2BbM57C-1" parent="vUb1ace9YoxmA2BbM57C-0"/>
                <mxCell id="Qk3zpBcyE13QibVvBZF3-58" value="" style="shape=umlLifeline;participant=umlActor;perimeter=lifelinePerimeter;whiteSpace=wrap;html=1;container=1;collapsible=0;recursiveResize=0;verticalAlign=top;spacingTop=36;outlineConnect=0;" vertex="1" parent="vUb1ace9YoxmA2BbM57C-1">
                    <mxGeometry x="70" y="100" width="20" height="390" as="geometry"/>
                </mxCell>
                <mxCell id="Qk3zpBcyE13QibVvBZF3-59" value="" style="html=1;points=[];perimeter=orthogonalPerimeter;" vertex="1" parent="Qk3zpBcyE13QibVvBZF3-58">
                    <mxGeometry x="5" y="80" width="10" height="100" as="geometry"/>
                </mxCell>
                <mxCell id="Qk3zpBcyE13QibVvBZF3-60" value="" style="html=1;points=[];perimeter=orthogonalPerimeter;" vertex="1" parent="Qk3zpBcyE13QibVvBZF3-58">
                    <mxGeometry x="5" y="200" width="10" height="160" as="geometry"/>
                </mxCell>
                <mxCell id="Qk3zpBcyE13QibVvBZF3-62" value="Forum" style="shape=umlLifeline;perimeter=lifelinePerimeter;whiteSpace=wrap;html=1;container=1;collapsible=0;recursiveResize=0;outlineConnect=0;" vertex="1" parent="vUb1ace9YoxmA2BbM57C-1">
                    <mxGeometry x="220" y="100" width="100" height="390" as="geometry"/>
                </mxCell>
                <mxCell id="Qk3zpBcyE13QibVvBZF3-63" value="" style="html=1;points=[];perimeter=orthogonalPerimeter;" vertex="1" parent="Qk3zpBcyE13QibVvBZF3-62">
                    <mxGeometry x="45" y="80" width="10" height="90" as="geometry"/>
                </mxCell>
                <mxCell id="Qk3zpBcyE13QibVvBZF3-64" value="" style="html=1;points=[];perimeter=orthogonalPerimeter;" vertex="1" parent="Qk3zpBcyE13QibVvBZF3-62">
                    <mxGeometry x="45" y="200" width="10" height="160" as="geometry"/>
                </mxCell>
                <mxCell id="Qk3zpBcyE13QibVvBZF3-66" value="API" style="shape=umlLifeline;perimeter=lifelinePerimeter;whiteSpace=wrap;html=1;container=1;collapsible=0;recursiveResize=0;outlineConnect=0;" vertex="1" parent="vUb1ace9YoxmA2BbM57C-1">
                    <mxGeometry x="380" y="100" width="100" height="400" as="geometry"/>
                </mxCell>
                <mxCell id="Qk3zpBcyE13QibVvBZF3-67" value="" style="html=1;points=[];perimeter=orthogonalPerimeter;" vertex="1" parent="Qk3zpBcyE13QibVvBZF3-66">
                    <mxGeometry x="44" y="80" width="10" height="100" as="geometry"/>
                </mxCell>
                <mxCell id="Qk3zpBcyE13QibVvBZF3-68" value="" style="html=1;points=[];perimeter=orthogonalPerimeter;" vertex="1" parent="Qk3zpBcyE13QibVvBZF3-66">
                    <mxGeometry x="44" y="200" width="10" height="160" as="geometry"/>
                </mxCell>
                <mxCell id="Qk3zpBcyE13QibVvBZF3-70" value="Database" style="shape=umlLifeline;perimeter=lifelinePerimeter;whiteSpace=wrap;html=1;container=1;collapsible=0;recursiveResize=0;outlineConnect=0;" vertex="1" parent="vUb1ace9YoxmA2BbM57C-1">
                    <mxGeometry x="550" y="100" width="100" height="390" as="geometry"/>
                </mxCell>
                <mxCell id="Qk3zpBcyE13QibVvBZF3-71" value="" style="html=1;points=[];perimeter=orthogonalPerimeter;" vertex="1" parent="Qk3zpBcyE13QibVvBZF3-70">
                    <mxGeometry x="45" y="80" width="10" height="100" as="geometry"/>
                </mxCell>
                <mxCell id="Qk3zpBcyE13QibVvBZF3-72" value="" style="html=1;points=[];perimeter=orthogonalPerimeter;" vertex="1" parent="Qk3zpBcyE13QibVvBZF3-70">
                    <mxGeometry x="45" y="200" width="10" height="160" as="geometry"/>
                </mxCell>
                <mxCell id="Qk3zpBcyE13QibVvBZF3-74" style="edgeStyle=none;html=1;" edge="1" parent="vUb1ace9YoxmA2BbM57C-1" source="Qk3zpBcyE13QibVvBZF3-59" target="Qk3zpBcyE13QibVvBZF3-63">
                    <mxGeometry relative="1" as="geometry">
                        <Array as="points">
                            <mxPoint x="190" y="190"/>
                        </Array>
                    </mxGeometry>
                </mxCell>
                <mxCell id="Qk3zpBcyE13QibVvBZF3-75" value="Navigate to forum" style="edgeLabel;html=1;align=center;verticalAlign=middle;resizable=0;points=[];" connectable="0" vertex="1" parent="Qk3zpBcyE13QibVvBZF3-74">
                    <mxGeometry x="-0.05" y="1" relative="1" as="geometry">
                        <mxPoint as="offset"/>
                    </mxGeometry>
                </mxCell>
                <mxCell id="Qk3zpBcyE13QibVvBZF3-76" style="edgeStyle=none;html=1;" edge="1" parent="vUb1ace9YoxmA2BbM57C-1" source="Qk3zpBcyE13QibVvBZF3-67" target="Qk3zpBcyE13QibVvBZF3-70">
                    <mxGeometry relative="1" as="geometry">
                        <Array as="points">
                            <mxPoint x="520" y="220"/>
                        </Array>
                    </mxGeometry>
                </mxCell>
                <mxCell id="Qk3zpBcyE13QibVvBZF3-77" value="Retrieve list of forums" style="edgeLabel;html=1;align=center;verticalAlign=middle;resizable=0;points=[];" connectable="0" vertex="1" parent="Qk3zpBcyE13QibVvBZF3-76">
                    <mxGeometry x="-0.2283" y="-1" relative="1" as="geometry">
                        <mxPoint x="16" y="-1" as="offset"/>
                    </mxGeometry>
                </mxCell>
                <mxCell id="Qk3zpBcyE13QibVvBZF3-78" style="edgeStyle=none;html=1;" edge="1" parent="vUb1ace9YoxmA2BbM57C-1" source="Qk3zpBcyE13QibVvBZF3-63" target="Qk3zpBcyE13QibVvBZF3-66">
                    <mxGeometry relative="1" as="geometry">
                        <Array as="points">
                            <mxPoint x="350" y="210"/>
                        </Array>
                        <mxPoint x="410" y="210" as="targetPoint"/>
                    </mxGeometry>
                </mxCell>
                <mxCell id="Qk3zpBcyE13QibVvBZF3-79" value="Query available forums" style="edgeLabel;html=1;align=center;verticalAlign=middle;resizable=0;points=[];" connectable="0" vertex="1" parent="Qk3zpBcyE13QibVvBZF3-78">
                    <mxGeometry x="-0.1974" y="4" relative="1" as="geometry">
                        <mxPoint x="13" as="offset"/>
                    </mxGeometry>
                </mxCell>
                <mxCell id="Qk3zpBcyE13QibVvBZF3-80" style="edgeStyle=none;html=1;" edge="1" parent="vUb1ace9YoxmA2BbM57C-1" source="Qk3zpBcyE13QibVvBZF3-71" target="Qk3zpBcyE13QibVvBZF3-66">
                    <mxGeometry relative="1" as="geometry">
                        <Array as="points">
                            <mxPoint x="510" y="240"/>
                        </Array>
                    </mxGeometry>
                </mxCell>
                <mxCell id="Qk3zpBcyE13QibVvBZF3-81" value="Return list of forums" style="edgeLabel;html=1;align=center;verticalAlign=middle;resizable=0;points=[];" connectable="0" vertex="1" parent="Qk3zpBcyE13QibVvBZF3-80">
                    <mxGeometry x="0.1061" y="-1" relative="1" as="geometry">
                        <mxPoint x="7" as="offset"/>
                    </mxGeometry>
                </mxCell>
                <mxCell id="Qk3zpBcyE13QibVvBZF3-82" style="edgeStyle=none;html=1;" edge="1" parent="vUb1ace9YoxmA2BbM57C-1" source="Qk3zpBcyE13QibVvBZF3-67" target="Qk3zpBcyE13QibVvBZF3-62">
                    <mxGeometry relative="1" as="geometry">
                        <Array as="points">
                            <mxPoint x="350" y="250"/>
                        </Array>
                    </mxGeometry>
                </mxCell>
                <mxCell id="Qk3zpBcyE13QibVvBZF3-83" value="Return list of forums" style="edgeLabel;html=1;align=center;verticalAlign=middle;resizable=0;points=[];" connectable="0" vertex="1" parent="Qk3zpBcyE13QibVvBZF3-82">
                    <mxGeometry x="0.0874" y="2" relative="1" as="geometry">
                        <mxPoint as="offset"/>
                    </mxGeometry>
                </mxCell>
                <mxCell id="Qk3zpBcyE13QibVvBZF3-84" style="edgeStyle=none;html=1;" edge="1" parent="vUb1ace9YoxmA2BbM57C-1">
                    <mxGeometry relative="1" as="geometry">
                        <Array as="points">
                            <mxPoint x="175" y="260"/>
                        </Array>
                        <mxPoint x="260" y="260" as="sourcePoint"/>
                        <mxPoint x="74.5" y="260" as="targetPoint"/>
                    </mxGeometry>
                </mxCell>
                <mxCell id="Qk3zpBcyE13QibVvBZF3-85" value="Display forum and existing threads" style="edgeLabel;html=1;align=center;verticalAlign=middle;resizable=0;points=[];" connectable="0" vertex="1" parent="Qk3zpBcyE13QibVvBZF3-84">
                    <mxGeometry x="0.0458" y="2" relative="1" as="geometry">
                        <mxPoint x="12" y="-2" as="offset"/>
                    </mxGeometry>
                </mxCell>
                <mxCell id="Qk3zpBcyE13QibVvBZF3-86" style="edgeStyle=none;html=1;" edge="1" parent="vUb1ace9YoxmA2BbM57C-1" source="Qk3zpBcyE13QibVvBZF3-60" target="Qk3zpBcyE13QibVvBZF3-62">
                    <mxGeometry relative="1" as="geometry">
                        <Array as="points">
                            <mxPoint x="180" y="320"/>
                        </Array>
                    </mxGeometry>
                </mxCell>
                <mxCell id="Qk3zpBcyE13QibVvBZF3-87" value="Click &quot;New Post&quot;" style="edgeLabel;html=1;align=center;verticalAlign=middle;resizable=0;points=[];" vertex="1" connectable="0" parent="Qk3zpBcyE13QibVvBZF3-86">
                    <mxGeometry x="-0.3171" y="-1" relative="1" as="geometry">
                        <mxPoint x="22" as="offset"/>
                    </mxGeometry>
                </mxCell>
                <mxCell id="Qk3zpBcyE13QibVvBZF3-117" style="edgeStyle=none;html=1;" edge="1" parent="vUb1ace9YoxmA2BbM57C-1" source="Qk3zpBcyE13QibVvBZF3-64" target="Qk3zpBcyE13QibVvBZF3-58">
                    <mxGeometry relative="1" as="geometry">
                        <Array as="points">
                            <mxPoint x="170" y="340"/>
                        </Array>
                    </mxGeometry>
                </mxCell>
                <mxCell id="Qk3zpBcyE13QibVvBZF3-118" value="Dsiplay post creation form" style="edgeLabel;html=1;align=center;verticalAlign=middle;resizable=0;points=[];" vertex="1" connectable="0" parent="Qk3zpBcyE13QibVvBZF3-117">
                    <mxGeometry x="0.1342" y="-1" relative="1" as="geometry">
                        <mxPoint x="20" as="offset"/>
                    </mxGeometry>
                </mxCell>
                <mxCell id="Qk3zpBcyE13QibVvBZF3-119" style="edgeStyle=none;html=1;" edge="1" parent="vUb1ace9YoxmA2BbM57C-1" source="Qk3zpBcyE13QibVvBZF3-60" target="Qk3zpBcyE13QibVvBZF3-62">
                    <mxGeometry relative="1" as="geometry">
                        <Array as="points">
                            <mxPoint x="180" y="360"/>
                        </Array>
                    </mxGeometry>
                </mxCell>
                <mxCell id="Qk3zpBcyE13QibVvBZF3-120" value="Enter post details" style="edgeLabel;html=1;align=center;verticalAlign=middle;resizable=0;points=[];" vertex="1" connectable="0" parent="Qk3zpBcyE13QibVvBZF3-119">
                    <mxGeometry x="-0.1674" y="-1" relative="1" as="geometry">
                        <mxPoint x="8" as="offset"/>
                    </mxGeometry>
                </mxCell>
                <mxCell id="Qk3zpBcyE13QibVvBZF3-121" style="edgeStyle=none;html=1;" edge="1" parent="vUb1ace9YoxmA2BbM57C-1" source="Qk3zpBcyE13QibVvBZF3-64" target="Qk3zpBcyE13QibVvBZF3-66">
                    <mxGeometry relative="1" as="geometry"/>
                </mxCell>
                <mxCell id="Qk3zpBcyE13QibVvBZF3-122" value="Send request to &lt;br&gt;create new post" style="edgeLabel;html=1;align=center;verticalAlign=middle;resizable=0;points=[];" vertex="1" connectable="0" parent="Qk3zpBcyE13QibVvBZF3-121">
                    <mxGeometry x="-0.2388" y="1" relative="1" as="geometry">
                        <mxPoint x="16" y="1" as="offset"/>
                    </mxGeometry>
                </mxCell>
                <mxCell id="Qk3zpBcyE13QibVvBZF3-123" style="edgeStyle=none;html=1;" edge="1" parent="vUb1ace9YoxmA2BbM57C-1" source="Qk3zpBcyE13QibVvBZF3-68" target="Qk3zpBcyE13QibVvBZF3-70">
                    <mxGeometry relative="1" as="geometry">
                        <Array as="points">
                            <mxPoint x="520" y="400"/>
                        </Array>
                    </mxGeometry>
                </mxCell>
                <mxCell id="Qk3zpBcyE13QibVvBZF3-124" value="Create post" style="edgeLabel;html=1;align=center;verticalAlign=middle;resizable=0;points=[];" vertex="1" connectable="0" parent="Qk3zpBcyE13QibVvBZF3-123">
                    <mxGeometry x="-0.3256" relative="1" as="geometry">
                        <mxPoint x="20" as="offset"/>
                    </mxGeometry>
                </mxCell>
                <mxCell id="Qk3zpBcyE13QibVvBZF3-125" style="edgeStyle=none;html=1;" edge="1" parent="vUb1ace9YoxmA2BbM57C-1" source="Qk3zpBcyE13QibVvBZF3-72" target="Qk3zpBcyE13QibVvBZF3-66">
                    <mxGeometry relative="1" as="geometry">
                        <Array as="points">
                            <mxPoint x="510" y="420"/>
                        </Array>
                    </mxGeometry>
                </mxCell>
                <mxCell id="Qk3zpBcyE13QibVvBZF3-126" value="Confirm creation" style="edgeLabel;html=1;align=center;verticalAlign=middle;resizable=0;points=[];" vertex="1" connectable="0" parent="Qk3zpBcyE13QibVvBZF3-125">
                    <mxGeometry x="0.235" y="2" relative="1" as="geometry">
                        <mxPoint x="17" as="offset"/>
                    </mxGeometry>
                </mxCell>
                <mxCell id="Qk3zpBcyE13QibVvBZF3-127" style="edgeStyle=none;html=1;" edge="1" parent="vUb1ace9YoxmA2BbM57C-1" source="Qk3zpBcyE13QibVvBZF3-68" target="Qk3zpBcyE13QibVvBZF3-62">
                    <mxGeometry relative="1" as="geometry">
                        <Array as="points">
                            <mxPoint x="340" y="440"/>
                        </Array>
                    </mxGeometry>
                </mxCell>
                <mxCell id="Qk3zpBcyE13QibVvBZF3-128" value="Confirm creation" style="edgeLabel;html=1;align=center;verticalAlign=middle;resizable=0;points=[];" vertex="1" connectable="0" parent="Qk3zpBcyE13QibVvBZF3-127">
                    <mxGeometry x="0.2712" y="3" relative="1" as="geometry">
                        <mxPoint x="14" as="offset"/>
                    </mxGeometry>
                </mxCell>
                <mxCell id="Qk3zpBcyE13QibVvBZF3-129" style="edgeStyle=none;html=1;" edge="1" parent="vUb1ace9YoxmA2BbM57C-1" source="Qk3zpBcyE13QibVvBZF3-64" target="Qk3zpBcyE13QibVvBZF3-58">
                    <mxGeometry relative="1" as="geometry">
                        <Array as="points">
                            <mxPoint x="170" y="450"/>
                        </Array>
                    </mxGeometry>
                </mxCell>
                <mxCell id="Qk3zpBcyE13QibVvBZF3-130" value="Display new post" style="edgeLabel;html=1;align=center;verticalAlign=middle;resizable=0;points=[];" vertex="1" connectable="0" parent="Qk3zpBcyE13QibVvBZF3-129">
                    <mxGeometry x="0.2636" y="-3" relative="1" as="geometry">
                        <mxPoint x="22" as="offset"/>
                    </mxGeometry>
                </mxCell>
            </root>
        </mxGraphModel>
    </diagram>
    <diagram id="L-PmUMPSJqijIKymekx9" name="Commenting in a thread">
        <mxGraphModel dx="922" dy="736" grid="1" gridSize="10" guides="1" tooltips="1" connect="1" arrows="1" fold="1" page="1" pageScale="1" pageWidth="827" pageHeight="1169" math="0" shadow="0">
            <root>
                <mxCell id="8XXjW8afimN1pZB45BHp-0"/>
                <mxCell id="8XXjW8afimN1pZB45BHp-1" parent="8XXjW8afimN1pZB45BHp-0"/>
                <mxCell id="5h2RmdDrmTdWWlFlAkap-0" value="" style="shape=umlLifeline;participant=umlActor;perimeter=lifelinePerimeter;whiteSpace=wrap;html=1;container=1;collapsible=0;recursiveResize=0;verticalAlign=top;spacingTop=36;outlineConnect=0;" vertex="1" parent="8XXjW8afimN1pZB45BHp-1">
                    <mxGeometry x="70" y="100" width="20" height="460" as="geometry"/>
                </mxCell>
                <mxCell id="5h2RmdDrmTdWWlFlAkap-1" value="" style="html=1;points=[];perimeter=orthogonalPerimeter;" vertex="1" parent="5h2RmdDrmTdWWlFlAkap-0">
                    <mxGeometry x="5" y="80" width="10" height="100" as="geometry"/>
                </mxCell>
                <mxCell id="5h2RmdDrmTdWWlFlAkap-2" value="" style="html=1;points=[];perimeter=orthogonalPerimeter;" vertex="1" parent="5h2RmdDrmTdWWlFlAkap-0">
                    <mxGeometry x="5" y="200" width="10" height="220" as="geometry"/>
                </mxCell>
                <mxCell id="5h2RmdDrmTdWWlFlAkap-3" value="Forum" style="shape=umlLifeline;perimeter=lifelinePerimeter;whiteSpace=wrap;html=1;container=1;collapsible=0;recursiveResize=0;outlineConnect=0;" vertex="1" parent="8XXjW8afimN1pZB45BHp-1">
                    <mxGeometry x="220" y="100" width="100" height="460" as="geometry"/>
                </mxCell>
                <mxCell id="5h2RmdDrmTdWWlFlAkap-4" value="" style="html=1;points=[];perimeter=orthogonalPerimeter;" vertex="1" parent="5h2RmdDrmTdWWlFlAkap-3">
                    <mxGeometry x="45" y="80" width="10" height="90" as="geometry"/>
                </mxCell>
                <mxCell id="5h2RmdDrmTdWWlFlAkap-5" value="" style="html=1;points=[];perimeter=orthogonalPerimeter;" vertex="1" parent="5h2RmdDrmTdWWlFlAkap-3">
                    <mxGeometry x="45" y="200" width="10" height="220" as="geometry"/>
                </mxCell>
                <mxCell id="5h2RmdDrmTdWWlFlAkap-6" value="API" style="shape=umlLifeline;perimeter=lifelinePerimeter;whiteSpace=wrap;html=1;container=1;collapsible=0;recursiveResize=0;outlineConnect=0;" vertex="1" parent="8XXjW8afimN1pZB45BHp-1">
                    <mxGeometry x="380" y="100" width="100" height="460" as="geometry"/>
                </mxCell>
                <mxCell id="5h2RmdDrmTdWWlFlAkap-7" value="" style="html=1;points=[];perimeter=orthogonalPerimeter;" vertex="1" parent="5h2RmdDrmTdWWlFlAkap-6">
                    <mxGeometry x="44" y="80" width="10" height="100" as="geometry"/>
                </mxCell>
                <mxCell id="5h2RmdDrmTdWWlFlAkap-8" value="" style="html=1;points=[];perimeter=orthogonalPerimeter;" vertex="1" parent="5h2RmdDrmTdWWlFlAkap-6">
                    <mxGeometry x="44" y="200" width="10" height="220" as="geometry"/>
                </mxCell>
                <mxCell id="5h2RmdDrmTdWWlFlAkap-9" value="Database" style="shape=umlLifeline;perimeter=lifelinePerimeter;whiteSpace=wrap;html=1;container=1;collapsible=0;recursiveResize=0;outlineConnect=0;" vertex="1" parent="8XXjW8afimN1pZB45BHp-1">
                    <mxGeometry x="550" y="100" width="100" height="460" as="geometry"/>
                </mxCell>
                <mxCell id="5h2RmdDrmTdWWlFlAkap-10" value="" style="html=1;points=[];perimeter=orthogonalPerimeter;" vertex="1" parent="5h2RmdDrmTdWWlFlAkap-9">
                    <mxGeometry x="45" y="80" width="10" height="100" as="geometry"/>
                </mxCell>
                <mxCell id="5h2RmdDrmTdWWlFlAkap-11" value="" style="html=1;points=[];perimeter=orthogonalPerimeter;" vertex="1" parent="5h2RmdDrmTdWWlFlAkap-9">
                    <mxGeometry x="45" y="200" width="10" height="220" as="geometry"/>
                </mxCell>
                <mxCell id="5h2RmdDrmTdWWlFlAkap-12" style="edgeStyle=none;html=1;" edge="1" parent="8XXjW8afimN1pZB45BHp-1" source="5h2RmdDrmTdWWlFlAkap-1" target="5h2RmdDrmTdWWlFlAkap-4">
                    <mxGeometry relative="1" as="geometry">
                        <Array as="points">
                            <mxPoint x="190" y="190"/>
                        </Array>
                    </mxGeometry>
                </mxCell>
                <mxCell id="5h2RmdDrmTdWWlFlAkap-13" value="Navigate to forum" style="edgeLabel;html=1;align=center;verticalAlign=middle;resizable=0;points=[];" connectable="0" vertex="1" parent="5h2RmdDrmTdWWlFlAkap-12">
                    <mxGeometry x="-0.05" y="1" relative="1" as="geometry">
                        <mxPoint as="offset"/>
                    </mxGeometry>
                </mxCell>
                <mxCell id="5h2RmdDrmTdWWlFlAkap-14" style="edgeStyle=none;html=1;" edge="1" parent="8XXjW8afimN1pZB45BHp-1" source="5h2RmdDrmTdWWlFlAkap-7" target="5h2RmdDrmTdWWlFlAkap-9">
                    <mxGeometry relative="1" as="geometry">
                        <Array as="points">
                            <mxPoint x="520" y="220"/>
                        </Array>
                    </mxGeometry>
                </mxCell>
                <mxCell id="5h2RmdDrmTdWWlFlAkap-15" value="Retrieve list of forums" style="edgeLabel;html=1;align=center;verticalAlign=middle;resizable=0;points=[];" connectable="0" vertex="1" parent="5h2RmdDrmTdWWlFlAkap-14">
                    <mxGeometry x="-0.2283" y="-1" relative="1" as="geometry">
                        <mxPoint x="16" y="-1" as="offset"/>
                    </mxGeometry>
                </mxCell>
                <mxCell id="5h2RmdDrmTdWWlFlAkap-16" style="edgeStyle=none;html=1;" edge="1" parent="8XXjW8afimN1pZB45BHp-1" source="5h2RmdDrmTdWWlFlAkap-4" target="5h2RmdDrmTdWWlFlAkap-6">
                    <mxGeometry relative="1" as="geometry">
                        <Array as="points">
                            <mxPoint x="350" y="210"/>
                        </Array>
                        <mxPoint x="410" y="210" as="targetPoint"/>
                    </mxGeometry>
                </mxCell>
                <mxCell id="5h2RmdDrmTdWWlFlAkap-17" value="Query available forums" style="edgeLabel;html=1;align=center;verticalAlign=middle;resizable=0;points=[];" connectable="0" vertex="1" parent="5h2RmdDrmTdWWlFlAkap-16">
                    <mxGeometry x="-0.1974" y="4" relative="1" as="geometry">
                        <mxPoint x="13" as="offset"/>
                    </mxGeometry>
                </mxCell>
                <mxCell id="5h2RmdDrmTdWWlFlAkap-18" style="edgeStyle=none;html=1;" edge="1" parent="8XXjW8afimN1pZB45BHp-1" source="5h2RmdDrmTdWWlFlAkap-10" target="5h2RmdDrmTdWWlFlAkap-6">
                    <mxGeometry relative="1" as="geometry">
                        <Array as="points">
                            <mxPoint x="510" y="240"/>
                        </Array>
                    </mxGeometry>
                </mxCell>
                <mxCell id="5h2RmdDrmTdWWlFlAkap-19" value="Return list of forums" style="edgeLabel;html=1;align=center;verticalAlign=middle;resizable=0;points=[];" connectable="0" vertex="1" parent="5h2RmdDrmTdWWlFlAkap-18">
                    <mxGeometry x="0.1061" y="-1" relative="1" as="geometry">
                        <mxPoint x="7" as="offset"/>
                    </mxGeometry>
                </mxCell>
                <mxCell id="5h2RmdDrmTdWWlFlAkap-20" style="edgeStyle=none;html=1;" edge="1" parent="8XXjW8afimN1pZB45BHp-1" source="5h2RmdDrmTdWWlFlAkap-7" target="5h2RmdDrmTdWWlFlAkap-3">
                    <mxGeometry relative="1" as="geometry">
                        <Array as="points">
                            <mxPoint x="350" y="250"/>
                        </Array>
                    </mxGeometry>
                </mxCell>
                <mxCell id="5h2RmdDrmTdWWlFlAkap-21" value="Return list of forums" style="edgeLabel;html=1;align=center;verticalAlign=middle;resizable=0;points=[];" connectable="0" vertex="1" parent="5h2RmdDrmTdWWlFlAkap-20">
                    <mxGeometry x="0.0874" y="2" relative="1" as="geometry">
                        <mxPoint as="offset"/>
                    </mxGeometry>
                </mxCell>
                <mxCell id="5h2RmdDrmTdWWlFlAkap-22" style="edgeStyle=none;html=1;" edge="1" parent="8XXjW8afimN1pZB45BHp-1">
                    <mxGeometry relative="1" as="geometry">
                        <Array as="points">
                            <mxPoint x="175" y="260"/>
                        </Array>
                        <mxPoint x="260" y="260" as="sourcePoint"/>
                        <mxPoint x="74.5" y="260" as="targetPoint"/>
                    </mxGeometry>
                </mxCell>
                <mxCell id="5h2RmdDrmTdWWlFlAkap-23" value="Display forum and existing threads" style="edgeLabel;html=1;align=center;verticalAlign=middle;resizable=0;points=[];" connectable="0" vertex="1" parent="5h2RmdDrmTdWWlFlAkap-22">
                    <mxGeometry x="0.0458" y="2" relative="1" as="geometry">
                        <mxPoint x="12" y="-2" as="offset"/>
                    </mxGeometry>
                </mxCell>
                <mxCell id="5h2RmdDrmTdWWlFlAkap-24" style="edgeStyle=none;html=1;" edge="1" parent="8XXjW8afimN1pZB45BHp-1" source="5h2RmdDrmTdWWlFlAkap-2" target="5h2RmdDrmTdWWlFlAkap-3">
                    <mxGeometry relative="1" as="geometry">
                        <Array as="points">
                            <mxPoint x="180" y="320"/>
                        </Array>
                    </mxGeometry>
                </mxCell>
                <mxCell id="5h2RmdDrmTdWWlFlAkap-25" value="Select a post to view" style="edgeLabel;html=1;align=center;verticalAlign=middle;resizable=0;points=[];" vertex="1" connectable="0" parent="5h2RmdDrmTdWWlFlAkap-24">
                    <mxGeometry x="-0.3171" y="-1" relative="1" as="geometry">
                        <mxPoint x="22" as="offset"/>
                    </mxGeometry>
                </mxCell>
                <mxCell id="5h2RmdDrmTdWWlFlAkap-26" style="edgeStyle=none;html=1;" edge="1" parent="8XXjW8afimN1pZB45BHp-1" source="5h2RmdDrmTdWWlFlAkap-5" target="5h2RmdDrmTdWWlFlAkap-0">
                    <mxGeometry relative="1" as="geometry">
                        <Array as="points">
                            <mxPoint x="170" y="340"/>
                        </Array>
                    </mxGeometry>
                </mxCell>
                <mxCell id="5h2RmdDrmTdWWlFlAkap-27" value="Display the selected post" style="edgeLabel;html=1;align=center;verticalAlign=middle;resizable=0;points=[];" vertex="1" connectable="0" parent="5h2RmdDrmTdWWlFlAkap-26">
                    <mxGeometry x="0.1342" y="-1" relative="1" as="geometry">
                        <mxPoint x="20" as="offset"/>
                    </mxGeometry>
                </mxCell>
                <mxCell id="5h2RmdDrmTdWWlFlAkap-28" style="edgeStyle=none;html=1;" edge="1" parent="8XXjW8afimN1pZB45BHp-1" source="5h2RmdDrmTdWWlFlAkap-2" target="5h2RmdDrmTdWWlFlAkap-3">
                    <mxGeometry relative="1" as="geometry">
                        <Array as="points">
                            <mxPoint x="180" y="360"/>
                        </Array>
                    </mxGeometry>
                </mxCell>
                <mxCell id="5h2RmdDrmTdWWlFlAkap-29" value="Click on &quot;Add Comment&quot;" style="edgeLabel;html=1;align=center;verticalAlign=middle;resizable=0;points=[];" vertex="1" connectable="0" parent="5h2RmdDrmTdWWlFlAkap-28">
                    <mxGeometry x="-0.1674" y="-1" relative="1" as="geometry">
                        <mxPoint x="8" as="offset"/>
                    </mxGeometry>
                </mxCell>
                <mxCell id="5h2RmdDrmTdWWlFlAkap-41" style="edgeStyle=none;html=1;" edge="1" parent="8XXjW8afimN1pZB45BHp-1" source="5h2RmdDrmTdWWlFlAkap-5" target="5h2RmdDrmTdWWlFlAkap-0">
                    <mxGeometry relative="1" as="geometry">
                        <Array as="points">
                            <mxPoint x="180" y="380"/>
                        </Array>
                    </mxGeometry>
                </mxCell>
                <mxCell id="5h2RmdDrmTdWWlFlAkap-42" value="Display comment form" style="edgeLabel;html=1;align=center;verticalAlign=middle;resizable=0;points=[];" vertex="1" connectable="0" parent="5h2RmdDrmTdWWlFlAkap-41">
                    <mxGeometry x="0.3067" y="3" relative="1" as="geometry">
                        <mxPoint x="26" y="-3" as="offset"/>
                    </mxGeometry>
                </mxCell>
                <mxCell id="5h2RmdDrmTdWWlFlAkap-43" style="edgeStyle=none;html=1;" edge="1" parent="8XXjW8afimN1pZB45BHp-1" source="5h2RmdDrmTdWWlFlAkap-2" target="5h2RmdDrmTdWWlFlAkap-3">
                    <mxGeometry relative="1" as="geometry">
                        <Array as="points">
                            <mxPoint x="170" y="400"/>
                        </Array>
                    </mxGeometry>
                </mxCell>
                <mxCell id="5h2RmdDrmTdWWlFlAkap-44" value="Enter comment and submit" style="edgeLabel;html=1;align=center;verticalAlign=middle;resizable=0;points=[];" vertex="1" connectable="0" parent="5h2RmdDrmTdWWlFlAkap-43">
                    <mxGeometry x="-0.2108" relative="1" as="geometry">
                        <mxPoint x="12" as="offset"/>
                    </mxGeometry>
                </mxCell>
                <mxCell id="5h2RmdDrmTdWWlFlAkap-45" style="edgeStyle=none;html=1;" edge="1" parent="8XXjW8afimN1pZB45BHp-1" source="5h2RmdDrmTdWWlFlAkap-5" target="5h2RmdDrmTdWWlFlAkap-6">
                    <mxGeometry relative="1" as="geometry">
                        <Array as="points">
                            <mxPoint x="350" y="420"/>
                        </Array>
                    </mxGeometry>
                </mxCell>
                <mxCell id="5h2RmdDrmTdWWlFlAkap-46" value="Send the comment to &lt;br&gt;be stored" style="edgeLabel;html=1;align=center;verticalAlign=middle;resizable=0;points=[];" vertex="1" connectable="0" parent="5h2RmdDrmTdWWlFlAkap-45">
                    <mxGeometry x="-0.3035" relative="1" as="geometry">
                        <mxPoint x="21" as="offset"/>
                    </mxGeometry>
                </mxCell>
                <mxCell id="5h2RmdDrmTdWWlFlAkap-47" style="edgeStyle=none;html=1;" edge="1" parent="8XXjW8afimN1pZB45BHp-1" source="5h2RmdDrmTdWWlFlAkap-8" target="5h2RmdDrmTdWWlFlAkap-9">
                    <mxGeometry relative="1" as="geometry">
                        <Array as="points">
                            <mxPoint x="500" y="440"/>
                        </Array>
                    </mxGeometry>
                </mxCell>
                <mxCell id="5h2RmdDrmTdWWlFlAkap-48" value="Store the comment&amp;nbsp;" style="edgeLabel;html=1;align=center;verticalAlign=middle;resizable=0;points=[];" vertex="1" connectable="0" parent="5h2RmdDrmTdWWlFlAkap-47">
                    <mxGeometry x="-0.4707" y="-2" relative="1" as="geometry">
                        <mxPoint x="32" as="offset"/>
                    </mxGeometry>
                </mxCell>
                <mxCell id="5h2RmdDrmTdWWlFlAkap-50" style="edgeStyle=none;html=1;" edge="1" parent="8XXjW8afimN1pZB45BHp-1" source="5h2RmdDrmTdWWlFlAkap-11" target="5h2RmdDrmTdWWlFlAkap-6">
                    <mxGeometry relative="1" as="geometry">
                        <Array as="points">
                            <mxPoint x="510" y="470"/>
                        </Array>
                    </mxGeometry>
                </mxCell>
                <mxCell id="5h2RmdDrmTdWWlFlAkap-51" value="Return success status" style="edgeLabel;html=1;align=center;verticalAlign=middle;resizable=0;points=[];" vertex="1" connectable="0" parent="5h2RmdDrmTdWWlFlAkap-50">
                    <mxGeometry x="0.2954" relative="1" as="geometry">
                        <mxPoint x="22" as="offset"/>
                    </mxGeometry>
                </mxCell>
                <mxCell id="5h2RmdDrmTdWWlFlAkap-52" style="edgeStyle=none;html=1;" edge="1" parent="8XXjW8afimN1pZB45BHp-1" source="5h2RmdDrmTdWWlFlAkap-8" target="5h2RmdDrmTdWWlFlAkap-3">
                    <mxGeometry relative="1" as="geometry">
                        <Array as="points">
                            <mxPoint x="350" y="490"/>
                        </Array>
                    </mxGeometry>
                </mxCell>
                <mxCell id="5h2RmdDrmTdWWlFlAkap-53" value="Return Sucess status" style="edgeLabel;html=1;align=center;verticalAlign=middle;resizable=0;points=[];" vertex="1" connectable="0" parent="5h2RmdDrmTdWWlFlAkap-52">
                    <mxGeometry x="0.1805" y="1" relative="1" as="geometry">
                        <mxPoint x="17" as="offset"/>
                    </mxGeometry>
                </mxCell>
                <mxCell id="5h2RmdDrmTdWWlFlAkap-54" style="edgeStyle=none;html=1;" edge="1" parent="8XXjW8afimN1pZB45BHp-1" source="5h2RmdDrmTdWWlFlAkap-5" target="5h2RmdDrmTdWWlFlAkap-0">
                    <mxGeometry relative="1" as="geometry">
                        <Array as="points">
                            <mxPoint x="170" y="510"/>
                        </Array>
                    </mxGeometry>
                </mxCell>
                <mxCell id="5h2RmdDrmTdWWlFlAkap-55" value="Display updated post" style="edgeLabel;html=1;align=center;verticalAlign=middle;resizable=0;points=[];" vertex="1" connectable="0" parent="5h2RmdDrmTdWWlFlAkap-54">
                    <mxGeometry x="0.2097" y="-1" relative="1" as="geometry">
                        <mxPoint x="17" as="offset"/>
                    </mxGeometry>
                </mxCell>
            </root>
        </mxGraphModel>
    </diagram>
    <diagram id="v3KZIWu7J9RUJyjzVq05" name="Live Chat">
        <mxGraphModel dx="922" dy="736" grid="1" gridSize="10" guides="1" tooltips="1" connect="1" arrows="1" fold="1" page="1" pageScale="1" pageWidth="827" pageHeight="1169" math="0" shadow="0">
            <root>
                <mxCell id="acE65k2d7zxFpJOTC9SO-0"/>
                <mxCell id="acE65k2d7zxFpJOTC9SO-1" parent="acE65k2d7zxFpJOTC9SO-0"/>
                <mxCell id="hTZv3idL1JD-raP3l2b--0" value="User A" style="shape=umlLifeline;participant=umlActor;perimeter=lifelinePerimeter;whiteSpace=wrap;html=1;container=1;collapsible=0;recursiveResize=0;verticalAlign=top;spacingTop=36;outlineConnect=0;" vertex="1" parent="acE65k2d7zxFpJOTC9SO-1">
                    <mxGeometry x="70" y="100" width="20" height="460" as="geometry"/>
                </mxCell>
                <mxCell id="hTZv3idL1JD-raP3l2b--1" value="" style="html=1;points=[];perimeter=orthogonalPerimeter;" vertex="1" parent="hTZv3idL1JD-raP3l2b--0">
                    <mxGeometry x="5" y="80" width="10" height="100" as="geometry"/>
                </mxCell>
                <mxCell id="hTZv3idL1JD-raP3l2b--2" value="" style="html=1;points=[];perimeter=orthogonalPerimeter;" vertex="1" parent="hTZv3idL1JD-raP3l2b--0">
                    <mxGeometry x="5" y="200" width="10" height="220" as="geometry"/>
                </mxCell>
                <mxCell id="hTZv3idL1JD-raP3l2b--3" value="Live Chat" style="shape=umlLifeline;perimeter=lifelinePerimeter;whiteSpace=wrap;html=1;container=1;collapsible=0;recursiveResize=0;outlineConnect=0;" vertex="1" parent="acE65k2d7zxFpJOTC9SO-1">
                    <mxGeometry x="220" y="100" width="100" height="460" as="geometry"/>
                </mxCell>
                <mxCell id="hTZv3idL1JD-raP3l2b--4" value="" style="html=1;points=[];perimeter=orthogonalPerimeter;" vertex="1" parent="hTZv3idL1JD-raP3l2b--3">
                    <mxGeometry x="45" y="80" width="10" height="90" as="geometry"/>
                </mxCell>
                <mxCell id="hTZv3idL1JD-raP3l2b--5" value="" style="html=1;points=[];perimeter=orthogonalPerimeter;" vertex="1" parent="hTZv3idL1JD-raP3l2b--3">
                    <mxGeometry x="45" y="200" width="10" height="220" as="geometry"/>
                </mxCell>
                <mxCell id="hTZv3idL1JD-raP3l2b--22" style="edgeStyle=none;html=1;" edge="1" parent="hTZv3idL1JD-raP3l2b--3">
                    <mxGeometry relative="1" as="geometry">
                        <Array as="points">
                            <mxPoint x="-40" y="130"/>
                        </Array>
                        <mxPoint x="45" y="130" as="sourcePoint"/>
                        <mxPoint x="-140.5" y="130" as="targetPoint"/>
                    </mxGeometry>
                </mxCell>
                <mxCell id="hTZv3idL1JD-raP3l2b--23" value="Display online users" style="edgeLabel;html=1;align=center;verticalAlign=middle;resizable=0;points=[];" connectable="0" vertex="1" parent="hTZv3idL1JD-raP3l2b--22">
                    <mxGeometry x="0.0458" y="2" relative="1" as="geometry">
                        <mxPoint x="12" y="-2" as="offset"/>
                    </mxGeometry>
                </mxCell>
                <mxCell id="hTZv3idL1JD-raP3l2b--12" style="edgeStyle=none;html=1;" edge="1" parent="acE65k2d7zxFpJOTC9SO-1" source="hTZv3idL1JD-raP3l2b--1" target="hTZv3idL1JD-raP3l2b--4">
                    <mxGeometry relative="1" as="geometry">
                        <Array as="points">
                            <mxPoint x="190" y="190"/>
                        </Array>
                    </mxGeometry>
                </mxCell>
                <mxCell id="hTZv3idL1JD-raP3l2b--13" value="Navigate to live chat" style="edgeLabel;html=1;align=center;verticalAlign=middle;resizable=0;points=[];" connectable="0" vertex="1" parent="hTZv3idL1JD-raP3l2b--12">
                    <mxGeometry x="-0.05" y="1" relative="1" as="geometry">
                        <mxPoint as="offset"/>
                    </mxGeometry>
                </mxCell>
                <mxCell id="hTZv3idL1JD-raP3l2b--24" style="edgeStyle=none;html=1;" edge="1" parent="acE65k2d7zxFpJOTC9SO-1" source="hTZv3idL1JD-raP3l2b--2" target="hTZv3idL1JD-raP3l2b--3">
                    <mxGeometry relative="1" as="geometry">
                        <Array as="points">
                            <mxPoint x="180" y="320"/>
                        </Array>
                    </mxGeometry>
                </mxCell>
                <mxCell id="hTZv3idL1JD-raP3l2b--25" value="Select user to chat with" style="edgeLabel;html=1;align=center;verticalAlign=middle;resizable=0;points=[];" vertex="1" connectable="0" parent="hTZv3idL1JD-raP3l2b--24">
                    <mxGeometry x="-0.3171" y="-1" relative="1" as="geometry">
                        <mxPoint x="22" as="offset"/>
                    </mxGeometry>
                </mxCell>
                <mxCell id="hTZv3idL1JD-raP3l2b--26" style="edgeStyle=none;html=1;" edge="1" parent="acE65k2d7zxFpJOTC9SO-1" source="hTZv3idL1JD-raP3l2b--5" target="hTZv3idL1JD-raP3l2b--0">
                    <mxGeometry relative="1" as="geometry">
                        <Array as="points">
                            <mxPoint x="170" y="340"/>
                        </Array>
                    </mxGeometry>
                </mxCell>
                <mxCell id="hTZv3idL1JD-raP3l2b--27" value="Open chat window and &lt;br&gt;display profile" style="edgeLabel;html=1;align=center;verticalAlign=middle;resizable=0;points=[];" vertex="1" connectable="0" parent="hTZv3idL1JD-raP3l2b--26">
                    <mxGeometry x="0.1342" y="-1" relative="1" as="geometry">
                        <mxPoint x="20" as="offset"/>
                    </mxGeometry>
                </mxCell>
                <mxCell id="hTZv3idL1JD-raP3l2b--28" style="edgeStyle=none;html=1;" edge="1" parent="acE65k2d7zxFpJOTC9SO-1">
                    <mxGeometry relative="1" as="geometry">
                        <Array as="points">
                            <mxPoint x="180" y="370"/>
                        </Array>
                        <mxPoint x="85" y="370" as="sourcePoint"/>
                        <mxPoint x="269.5" y="370" as="targetPoint"/>
                    </mxGeometry>
                </mxCell>
                <mxCell id="hTZv3idL1JD-raP3l2b--29" value="Type message and click send" style="edgeLabel;html=1;align=center;verticalAlign=middle;resizable=0;points=[];" vertex="1" connectable="0" parent="hTZv3idL1JD-raP3l2b--28">
                    <mxGeometry x="-0.1674" y="-1" relative="1" as="geometry">
                        <mxPoint x="8" as="offset"/>
                    </mxGeometry>
                </mxCell>
                <mxCell id="hTZv3idL1JD-raP3l2b--45" value="User B" style="shape=umlLifeline;participant=umlActor;perimeter=lifelinePerimeter;whiteSpace=wrap;html=1;container=1;collapsible=0;recursiveResize=0;verticalAlign=top;spacingTop=36;outlineConnect=0;" vertex="1" parent="acE65k2d7zxFpJOTC9SO-1">
                    <mxGeometry x="460" y="100" width="20" height="460" as="geometry"/>
                </mxCell>
                <mxCell id="hTZv3idL1JD-raP3l2b--46" value="" style="html=1;points=[];perimeter=orthogonalPerimeter;" vertex="1" parent="hTZv3idL1JD-raP3l2b--45">
                    <mxGeometry x="5" y="80" width="10" height="100" as="geometry"/>
                </mxCell>
                <mxCell id="hTZv3idL1JD-raP3l2b--47" value="" style="html=1;points=[];perimeter=orthogonalPerimeter;" vertex="1" parent="hTZv3idL1JD-raP3l2b--45">
                    <mxGeometry x="5" y="200" width="10" height="220" as="geometry"/>
                </mxCell>
                <mxCell id="hTZv3idL1JD-raP3l2b--48" style="edgeStyle=none;html=1;" edge="1" parent="acE65k2d7zxFpJOTC9SO-1" source="hTZv3idL1JD-raP3l2b--5" target="hTZv3idL1JD-raP3l2b--45">
                    <mxGeometry relative="1" as="geometry">
                        <Array as="points">
                            <mxPoint x="390" y="390"/>
                        </Array>
                    </mxGeometry>
                </mxCell>
                <mxCell id="hTZv3idL1JD-raP3l2b--49" value="Send message" style="edgeLabel;html=1;align=center;verticalAlign=middle;resizable=0;points=[];" vertex="1" connectable="0" parent="hTZv3idL1JD-raP3l2b--48">
                    <mxGeometry x="-0.0663" y="-1" relative="1" as="geometry">
                        <mxPoint as="offset"/>
                    </mxGeometry>
                </mxCell>
                <mxCell id="hTZv3idL1JD-raP3l2b--50" style="edgeStyle=none;html=1;" edge="1" parent="acE65k2d7zxFpJOTC9SO-1" source="hTZv3idL1JD-raP3l2b--47" target="hTZv3idL1JD-raP3l2b--3">
                    <mxGeometry relative="1" as="geometry"/>
                </mxCell>
                <mxCell id="hTZv3idL1JD-raP3l2b--51" value="Receive message" style="edgeLabel;html=1;align=center;verticalAlign=middle;resizable=0;points=[];" vertex="1" connectable="0" parent="hTZv3idL1JD-raP3l2b--50">
                    <mxGeometry x="0.3115" y="-2" relative="1" as="geometry">
                        <mxPoint x="33" y="2" as="offset"/>
                    </mxGeometry>
                </mxCell>
                <mxCell id="hTZv3idL1JD-raP3l2b--52" style="edgeStyle=none;html=1;" edge="1" parent="acE65k2d7zxFpJOTC9SO-1" source="hTZv3idL1JD-raP3l2b--47" target="hTZv3idL1JD-raP3l2b--3">
                    <mxGeometry relative="1" as="geometry">
                        <Array as="points">
                            <mxPoint x="350" y="430"/>
                        </Array>
                    </mxGeometry>
                </mxCell>
                <mxCell id="hTZv3idL1JD-raP3l2b--53" value="Type response in text field&lt;br&gt;and click send" style="edgeLabel;html=1;align=center;verticalAlign=middle;resizable=0;points=[];" vertex="1" connectable="0" parent="hTZv3idL1JD-raP3l2b--52">
                    <mxGeometry x="0.3524" y="3" relative="1" as="geometry">
                        <mxPoint x="37" y="-3" as="offset"/>
                    </mxGeometry>
                </mxCell>
                <mxCell id="hTZv3idL1JD-raP3l2b--54" style="edgeStyle=none;html=1;" edge="1" parent="acE65k2d7zxFpJOTC9SO-1" source="hTZv3idL1JD-raP3l2b--5" target="hTZv3idL1JD-raP3l2b--0">
                    <mxGeometry relative="1" as="geometry">
                        <Array as="points">
                            <mxPoint x="130" y="450"/>
                        </Array>
                    </mxGeometry>
                </mxCell>
                <mxCell id="hTZv3idL1JD-raP3l2b--55" value="Send response" style="edgeLabel;html=1;align=center;verticalAlign=middle;resizable=0;points=[];" vertex="1" connectable="0" parent="hTZv3idL1JD-raP3l2b--54">
                    <mxGeometry x="0.242" y="-3" relative="1" as="geometry">
                        <mxPoint x="30" as="offset"/>
                    </mxGeometry>
                </mxCell>
                <mxCell id="hTZv3idL1JD-raP3l2b--56" style="edgeStyle=none;html=1;" edge="1" parent="acE65k2d7zxFpJOTC9SO-1" source="hTZv3idL1JD-raP3l2b--2" target="hTZv3idL1JD-raP3l2b--3">
                    <mxGeometry relative="1" as="geometry">
                        <Array as="points">
                            <mxPoint x="170" y="470"/>
                        </Array>
                    </mxGeometry>
                </mxCell>
                <mxCell id="hTZv3idL1JD-raP3l2b--57" value="Receive response" style="edgeLabel;html=1;align=center;verticalAlign=middle;resizable=0;points=[];" vertex="1" connectable="0" parent="hTZv3idL1JD-raP3l2b--56">
                    <mxGeometry x="-0.1891" y="2" relative="1" as="geometry">
                        <mxPoint x="20" as="offset"/>
                    </mxGeometry>
                </mxCell>
            </root>
        </mxGraphModel>
    </diagram>
    <diagram id="4rm_esrvbOaB0N4glYCU" name="Live Chat (Pt. 2)">
        <mxGraphModel dx="1186" dy="724" grid="1" gridSize="10" guides="1" tooltips="1" connect="1" arrows="1" fold="1" page="1" pageScale="1" pageWidth="827" pageHeight="1169" math="0" shadow="0">
            <root>
                <mxCell id="A8lC3ZGCfO31Uwx_v6Im-0"/>
                <mxCell id="A8lC3ZGCfO31Uwx_v6Im-1" parent="A8lC3ZGCfO31Uwx_v6Im-0"/>
                <mxCell id="zsDIO9U1t5Tdj052fh4u-0" value="User B" style="shape=umlLifeline;participant=umlActor;perimeter=lifelinePerimeter;whiteSpace=wrap;html=1;container=1;collapsible=0;recursiveResize=0;verticalAlign=top;spacingTop=36;outlineConnect=0;" vertex="1" parent="A8lC3ZGCfO31Uwx_v6Im-1">
                    <mxGeometry x="50" y="80" width="20" height="480" as="geometry"/>
                </mxCell>
                <mxCell id="zsDIO9U1t5Tdj052fh4u-1" value="" style="html=1;points=[];perimeter=orthogonalPerimeter;" vertex="1" parent="zsDIO9U1t5Tdj052fh4u-0">
                    <mxGeometry x="5" y="80" width="10" height="100" as="geometry"/>
                </mxCell>
                <mxCell id="zsDIO9U1t5Tdj052fh4u-2" value="" style="html=1;points=[];perimeter=orthogonalPerimeter;" vertex="1" parent="zsDIO9U1t5Tdj052fh4u-0">
                    <mxGeometry x="5" y="220" width="10" height="100" as="geometry"/>
                </mxCell>
                <mxCell id="zsDIO9U1t5Tdj052fh4u-3" value="Web Server" style="shape=umlLifeline;perimeter=lifelinePerimeter;whiteSpace=wrap;html=1;container=1;collapsible=0;recursiveResize=0;outlineConnect=0;" vertex="1" parent="A8lC3ZGCfO31Uwx_v6Im-1">
                    <mxGeometry x="200" y="80" width="100" height="480" as="geometry"/>
                </mxCell>
                <mxCell id="zsDIO9U1t5Tdj052fh4u-4" value="" style="html=1;points=[];perimeter=orthogonalPerimeter;" vertex="1" parent="zsDIO9U1t5Tdj052fh4u-3">
                    <mxGeometry x="45" y="80" width="10" height="90" as="geometry"/>
                </mxCell>
                <mxCell id="zsDIO9U1t5Tdj052fh4u-5" value="" style="html=1;points=[];perimeter=orthogonalPerimeter;" vertex="1" parent="zsDIO9U1t5Tdj052fh4u-3">
                    <mxGeometry x="45" y="220" width="10" height="140" as="geometry"/>
                </mxCell>
                <mxCell id="zsDIO9U1t5Tdj052fh4u-6" value="Application Server" style="shape=umlLifeline;perimeter=lifelinePerimeter;whiteSpace=wrap;html=1;container=1;collapsible=0;recursiveResize=0;outlineConnect=0;" vertex="1" parent="A8lC3ZGCfO31Uwx_v6Im-1">
                    <mxGeometry x="360" y="80" width="100" height="480" as="geometry"/>
                </mxCell>
                <mxCell id="zsDIO9U1t5Tdj052fh4u-7" value="" style="html=1;points=[];perimeter=orthogonalPerimeter;" vertex="1" parent="zsDIO9U1t5Tdj052fh4u-6">
                    <mxGeometry x="44" y="80" width="10" height="100" as="geometry"/>
                </mxCell>
                <mxCell id="zsDIO9U1t5Tdj052fh4u-8" value="" style="html=1;points=[];perimeter=orthogonalPerimeter;" vertex="1" parent="zsDIO9U1t5Tdj052fh4u-6">
                    <mxGeometry x="44" y="220" width="10" height="140" as="geometry"/>
                </mxCell>
                <mxCell id="zsDIO9U1t5Tdj052fh4u-9" value="Database Server" style="shape=umlLifeline;perimeter=lifelinePerimeter;whiteSpace=wrap;html=1;container=1;collapsible=0;recursiveResize=0;outlineConnect=0;" vertex="1" parent="A8lC3ZGCfO31Uwx_v6Im-1">
                    <mxGeometry x="560" y="80" width="100" height="480" as="geometry"/>
                </mxCell>
                <mxCell id="zsDIO9U1t5Tdj052fh4u-40" value="" style="html=1;points=[];perimeter=orthogonalPerimeter;" vertex="1" parent="zsDIO9U1t5Tdj052fh4u-9">
                    <mxGeometry x="45" y="80" width="10" height="100" as="geometry"/>
                </mxCell>
                <mxCell id="zsDIO9U1t5Tdj052fh4u-44" value="" style="html=1;points=[];perimeter=orthogonalPerimeter;" vertex="1" parent="zsDIO9U1t5Tdj052fh4u-9">
                    <mxGeometry x="45" y="220" width="10" height="110" as="geometry"/>
                </mxCell>
                <mxCell id="zsDIO9U1t5Tdj052fh4u-11" style="edgeStyle=none;html=1;" edge="1" parent="A8lC3ZGCfO31Uwx_v6Im-1" source="zsDIO9U1t5Tdj052fh4u-1" target="zsDIO9U1t5Tdj052fh4u-4">
                    <mxGeometry relative="1" as="geometry">
                        <Array as="points">
                            <mxPoint x="170" y="170"/>
                        </Array>
                    </mxGeometry>
                </mxCell>
                <mxCell id="zsDIO9U1t5Tdj052fh4u-12" value="Open push notification" style="edgeLabel;html=1;align=center;verticalAlign=middle;resizable=0;points=[];" connectable="0" vertex="1" parent="zsDIO9U1t5Tdj052fh4u-11">
                    <mxGeometry x="-0.05" y="1" relative="1" as="geometry">
                        <mxPoint as="offset"/>
                    </mxGeometry>
                </mxCell>
                <mxCell id="zsDIO9U1t5Tdj052fh4u-13" style="edgeStyle=none;html=1;" edge="1" parent="A8lC3ZGCfO31Uwx_v6Im-1" source="zsDIO9U1t5Tdj052fh4u-4" target="zsDIO9U1t5Tdj052fh4u-6">
                    <mxGeometry relative="1" as="geometry">
                        <Array as="points">
                            <mxPoint x="330" y="190"/>
                        </Array>
                    </mxGeometry>
                </mxCell>
                <mxCell id="zsDIO9U1t5Tdj052fh4u-14" value="Forward Request" style="edgeLabel;html=1;align=center;verticalAlign=middle;resizable=0;points=[];" connectable="0" vertex="1" parent="zsDIO9U1t5Tdj052fh4u-13">
                    <mxGeometry x="-0.1974" y="4" relative="1" as="geometry">
                        <mxPoint as="offset"/>
                    </mxGeometry>
                </mxCell>
                <mxCell id="zsDIO9U1t5Tdj052fh4u-15" style="edgeStyle=none;html=1;" edge="1" parent="A8lC3ZGCfO31Uwx_v6Im-1" source="zsDIO9U1t5Tdj052fh4u-7" target="zsDIO9U1t5Tdj052fh4u-3">
                    <mxGeometry relative="1" as="geometry">
                        <Array as="points">
                            <mxPoint x="330" y="230"/>
                        </Array>
                    </mxGeometry>
                </mxCell>
                <mxCell id="zsDIO9U1t5Tdj052fh4u-16" value="Return chat history" style="edgeLabel;html=1;align=center;verticalAlign=middle;resizable=0;points=[];" connectable="0" vertex="1" parent="zsDIO9U1t5Tdj052fh4u-15">
                    <mxGeometry x="0.0874" y="2" relative="1" as="geometry">
                        <mxPoint y="-12" as="offset"/>
                    </mxGeometry>
                </mxCell>
                <mxCell id="zsDIO9U1t5Tdj052fh4u-17" style="edgeStyle=none;html=1;" edge="1" parent="A8lC3ZGCfO31Uwx_v6Im-1" source="zsDIO9U1t5Tdj052fh4u-4" target="zsDIO9U1t5Tdj052fh4u-0">
                    <mxGeometry relative="1" as="geometry">
                        <Array as="points">
                            <mxPoint x="160" y="240"/>
                        </Array>
                    </mxGeometry>
                </mxCell>
                <mxCell id="zsDIO9U1t5Tdj052fh4u-18" value="Display chat history" style="edgeLabel;html=1;align=center;verticalAlign=middle;resizable=0;points=[];" connectable="0" vertex="1" parent="zsDIO9U1t5Tdj052fh4u-17">
                    <mxGeometry x="0.0458" y="2" relative="1" as="geometry">
                        <mxPoint y="-12" as="offset"/>
                    </mxGeometry>
                </mxCell>
                <mxCell id="zsDIO9U1t5Tdj052fh4u-19" value="Input response and Send" style="edgeStyle=none;html=1;entryX=0.081;entryY=0.136;entryDx=0;entryDy=0;entryPerimeter=0;" edge="1" parent="A8lC3ZGCfO31Uwx_v6Im-1" source="zsDIO9U1t5Tdj052fh4u-2" target="zsDIO9U1t5Tdj052fh4u-5">
                    <mxGeometry relative="1" as="geometry"/>
                </mxCell>
                <mxCell id="zsDIO9U1t5Tdj052fh4u-20" style="edgeStyle=none;html=1;" edge="1" parent="A8lC3ZGCfO31Uwx_v6Im-1" source="zsDIO9U1t5Tdj052fh4u-5" target="zsDIO9U1t5Tdj052fh4u-6">
                    <mxGeometry relative="1" as="geometry">
                        <Array as="points">
                            <mxPoint x="340" y="326"/>
                        </Array>
                    </mxGeometry>
                </mxCell>
                <mxCell id="zsDIO9U1t5Tdj052fh4u-21" value="Forward request" style="edgeLabel;html=1;align=center;verticalAlign=middle;resizable=0;points=[];" vertex="1" connectable="0" parent="zsDIO9U1t5Tdj052fh4u-20">
                    <mxGeometry x="0.0746" relative="1" as="geometry">
                        <mxPoint x="-13" y="-6" as="offset"/>
                    </mxGeometry>
                </mxCell>
                <mxCell id="zsDIO9U1t5Tdj052fh4u-24" style="edgeStyle=none;html=1;" edge="1" parent="A8lC3ZGCfO31Uwx_v6Im-1" source="zsDIO9U1t5Tdj052fh4u-8" target="zsDIO9U1t5Tdj052fh4u-3">
                    <mxGeometry relative="1" as="geometry">
                        <Array as="points">
                            <mxPoint x="330" y="380"/>
                        </Array>
                    </mxGeometry>
                </mxCell>
                <mxCell id="zsDIO9U1t5Tdj052fh4u-25" value="Return Success message" style="edgeLabel;html=1;align=center;verticalAlign=middle;resizable=0;points=[];fontSize=10;" vertex="1" connectable="0" parent="zsDIO9U1t5Tdj052fh4u-24">
                    <mxGeometry x="0.4591" relative="1" as="geometry">
                        <mxPoint x="41" y="-5" as="offset"/>
                    </mxGeometry>
                </mxCell>
                <mxCell id="zsDIO9U1t5Tdj052fh4u-26" style="edgeStyle=none;html=1;entryX=0.938;entryY=0.908;entryDx=0;entryDy=0;entryPerimeter=0;fontSize=10;" edge="1" parent="A8lC3ZGCfO31Uwx_v6Im-1" source="zsDIO9U1t5Tdj052fh4u-5" target="zsDIO9U1t5Tdj052fh4u-2">
                    <mxGeometry relative="1" as="geometry">
                        <Array as="points">
                            <mxPoint x="160" y="390"/>
                        </Array>
                    </mxGeometry>
                </mxCell>
                <mxCell id="zsDIO9U1t5Tdj052fh4u-27" value="Display success message" style="edgeLabel;html=1;align=center;verticalAlign=middle;resizable=0;points=[];fontSize=10;" vertex="1" connectable="0" parent="zsDIO9U1t5Tdj052fh4u-26">
                    <mxGeometry x="0.117" y="-1" relative="1" as="geometry">
                        <mxPoint x="6" as="offset"/>
                    </mxGeometry>
                </mxCell>
                <mxCell id="zsDIO9U1t5Tdj052fh4u-30" style="edgeStyle=none;html=1;entryX=-0.18;entryY=0.799;entryDx=0;entryDy=0;entryPerimeter=0;fontSize=10;" edge="1" parent="A8lC3ZGCfO31Uwx_v6Im-1" source="zsDIO9U1t5Tdj052fh4u-5" target="zsDIO9U1t5Tdj052fh4u-8">
                    <mxGeometry relative="1" as="geometry"/>
                </mxCell>
                <mxCell id="zsDIO9U1t5Tdj052fh4u-31" value="Forward request" style="edgeLabel;html=1;align=center;verticalAlign=middle;resizable=0;points=[];fontSize=10;" vertex="1" connectable="0" parent="zsDIO9U1t5Tdj052fh4u-30">
                    <mxGeometry x="-0.1738" y="-1" relative="1" as="geometry">
                        <mxPoint x="4" y="-13" as="offset"/>
                    </mxGeometry>
                </mxCell>
                <mxCell id="zsDIO9U1t5Tdj052fh4u-32" value="Push Notification Server" style="shape=umlLifeline;perimeter=lifelinePerimeter;whiteSpace=wrap;html=1;container=1;collapsible=0;recursiveResize=0;outlineConnect=0;" vertex="1" parent="A8lC3ZGCfO31Uwx_v6Im-1">
                    <mxGeometry x="670" y="80" width="100" height="480" as="geometry"/>
                </mxCell>
                <mxCell id="zsDIO9U1t5Tdj052fh4u-49" value="" style="html=1;points=[];perimeter=orthogonalPerimeter;" vertex="1" parent="zsDIO9U1t5Tdj052fh4u-32">
                    <mxGeometry x="45" y="310" width="10" height="100" as="geometry"/>
                </mxCell>
                <mxCell id="zsDIO9U1t5Tdj052fh4u-36" value="User A" style="shape=umlLifeline;participant=umlActor;perimeter=lifelinePerimeter;whiteSpace=wrap;html=1;container=1;collapsible=0;recursiveResize=0;verticalAlign=top;spacingTop=36;outlineConnect=0;" vertex="1" parent="A8lC3ZGCfO31Uwx_v6Im-1">
                    <mxGeometry x="900" y="80" width="20" height="480" as="geometry"/>
                </mxCell>
                <mxCell id="zsDIO9U1t5Tdj052fh4u-52" value="" style="html=1;points=[];perimeter=orthogonalPerimeter;" vertex="1" parent="zsDIO9U1t5Tdj052fh4u-36">
                    <mxGeometry x="5" y="310" width="10" height="100" as="geometry"/>
                </mxCell>
                <mxCell id="zsDIO9U1t5Tdj052fh4u-41" style="edgeStyle=none;html=1;fontSize=10;" edge="1" parent="A8lC3ZGCfO31Uwx_v6Im-1" source="zsDIO9U1t5Tdj052fh4u-7" target="zsDIO9U1t5Tdj052fh4u-40">
                    <mxGeometry relative="1" as="geometry"/>
                </mxCell>
                <mxCell id="zsDIO9U1t5Tdj052fh4u-42" value="Retrieve chat history with User A" style="edgeLabel;html=1;align=center;verticalAlign=middle;resizable=0;points=[];fontSize=10;" vertex="1" connectable="0" parent="zsDIO9U1t5Tdj052fh4u-41">
                    <mxGeometry x="-0.1477" relative="1" as="geometry">
                        <mxPoint x="7" y="-5" as="offset"/>
                    </mxGeometry>
                </mxCell>
                <mxCell id="zsDIO9U1t5Tdj052fh4u-43" value="Return chat history" style="edgeStyle=none;html=1;entryX=1.261;entryY=0.66;entryDx=0;entryDy=0;entryPerimeter=0;fontSize=10;" edge="1" parent="A8lC3ZGCfO31Uwx_v6Im-1" source="zsDIO9U1t5Tdj052fh4u-40" target="zsDIO9U1t5Tdj052fh4u-7">
                    <mxGeometry x="0.1147" y="4" relative="1" as="geometry">
                        <mxPoint as="offset"/>
                    </mxGeometry>
                </mxCell>
                <mxCell id="zsDIO9U1t5Tdj052fh4u-45" style="edgeStyle=none;html=1;entryX=-0.239;entryY=0.293;entryDx=0;entryDy=0;entryPerimeter=0;fontSize=10;" edge="1" parent="A8lC3ZGCfO31Uwx_v6Im-1" source="zsDIO9U1t5Tdj052fh4u-8" target="zsDIO9U1t5Tdj052fh4u-44">
                    <mxGeometry relative="1" as="geometry"/>
                </mxCell>
                <mxCell id="zsDIO9U1t5Tdj052fh4u-46" value="Store message in database" style="edgeLabel;html=1;align=center;verticalAlign=middle;resizable=0;points=[];fontSize=10;" vertex="1" connectable="0" parent="zsDIO9U1t5Tdj052fh4u-45">
                    <mxGeometry x="-0.1771" y="1" relative="1" as="geometry">
                        <mxPoint x="8" y="-11" as="offset"/>
                    </mxGeometry>
                </mxCell>
                <mxCell id="zsDIO9U1t5Tdj052fh4u-47" style="edgeStyle=none;html=1;fontSize=10;" edge="1" parent="A8lC3ZGCfO31Uwx_v6Im-1" source="zsDIO9U1t5Tdj052fh4u-44" target="zsDIO9U1t5Tdj052fh4u-8">
                    <mxGeometry relative="1" as="geometry"/>
                </mxCell>
                <mxCell id="zsDIO9U1t5Tdj052fh4u-48" value="Return success mesage" style="edgeLabel;html=1;align=center;verticalAlign=middle;resizable=0;points=[];fontSize=10;" vertex="1" connectable="0" parent="zsDIO9U1t5Tdj052fh4u-47">
                    <mxGeometry x="0.2921" y="4" relative="1" as="geometry">
                        <mxPoint x="18" y="-14" as="offset"/>
                    </mxGeometry>
                </mxCell>
                <mxCell id="zsDIO9U1t5Tdj052fh4u-50" style="edgeStyle=none;html=1;entryX=-0.339;entryY=0.42;entryDx=0;entryDy=0;entryPerimeter=0;fontSize=10;" edge="1" parent="A8lC3ZGCfO31Uwx_v6Im-1" source="zsDIO9U1t5Tdj052fh4u-8" target="zsDIO9U1t5Tdj052fh4u-49">
                    <mxGeometry relative="1" as="geometry"/>
                </mxCell>
                <mxCell id="zsDIO9U1t5Tdj052fh4u-51" value="Notify user A of new message" style="edgeLabel;html=1;align=center;verticalAlign=middle;resizable=0;points=[];fontSize=10;" vertex="1" connectable="0" parent="zsDIO9U1t5Tdj052fh4u-50">
                    <mxGeometry x="-0.1089" y="4" relative="1" as="geometry">
                        <mxPoint as="offset"/>
                    </mxGeometry>
                </mxCell>
                <mxCell id="zsDIO9U1t5Tdj052fh4u-53" value="Send push notification to User A" style="edgeStyle=none;html=1;fontSize=10;" edge="1" parent="A8lC3ZGCfO31Uwx_v6Im-1" source="zsDIO9U1t5Tdj052fh4u-49" target="zsDIO9U1t5Tdj052fh4u-36">
                    <mxGeometry relative="1" as="geometry">
                        <Array as="points">
                            <mxPoint x="820" y="450"/>
                        </Array>
                    </mxGeometry>
                </mxCell>
            </root>
        </mxGraphModel>
    </diagram>
    <diagram id="H2T7M-LBmnQxGSW1RA2c" name="View Article">
        <mxGraphModel dx="1318" dy="804" grid="1" gridSize="10" guides="1" tooltips="1" connect="1" arrows="1" fold="1" page="1" pageScale="1" pageWidth="827" pageHeight="1169" math="0" shadow="0">
            <root>
                <mxCell id="ZF3vktFKSFpccjwYsxge-0"/>
                <mxCell id="ZF3vktFKSFpccjwYsxge-1" parent="ZF3vktFKSFpccjwYsxge-0"/>
                <mxCell id="02eHSVCnHxcGjT3bun7W-0" value="" style="shape=umlLifeline;participant=umlActor;perimeter=lifelinePerimeter;whiteSpace=wrap;html=1;container=1;collapsible=0;recursiveResize=0;verticalAlign=top;spacingTop=36;outlineConnect=0;" vertex="1" parent="ZF3vktFKSFpccjwYsxge-1">
                    <mxGeometry x="50" y="80" width="20" height="240" as="geometry"/>
                </mxCell>
                <mxCell id="02eHSVCnHxcGjT3bun7W-2" value="" style="html=1;points=[];perimeter=orthogonalPerimeter;" vertex="1" parent="02eHSVCnHxcGjT3bun7W-0">
                    <mxGeometry x="5" y="70" width="10" height="100" as="geometry"/>
                </mxCell>
                <mxCell id="02eHSVCnHxcGjT3bun7W-3" value="Web Server" style="shape=umlLifeline;perimeter=lifelinePerimeter;whiteSpace=wrap;html=1;container=1;collapsible=0;recursiveResize=0;outlineConnect=0;" vertex="1" parent="ZF3vktFKSFpccjwYsxge-1">
                    <mxGeometry x="200" y="80" width="100" height="240" as="geometry"/>
                </mxCell>
                <mxCell id="02eHSVCnHxcGjT3bun7W-5" value="" style="html=1;points=[];perimeter=orthogonalPerimeter;" vertex="1" parent="02eHSVCnHxcGjT3bun7W-3">
                    <mxGeometry x="45" y="70" width="10" height="100" as="geometry"/>
                </mxCell>
                <mxCell id="02eHSVCnHxcGjT3bun7W-6" value="Application Server" style="shape=umlLifeline;perimeter=lifelinePerimeter;whiteSpace=wrap;html=1;container=1;collapsible=0;recursiveResize=0;outlineConnect=0;" vertex="1" parent="ZF3vktFKSFpccjwYsxge-1">
                    <mxGeometry x="360" y="80" width="100" height="240" as="geometry"/>
                </mxCell>
                <mxCell id="02eHSVCnHxcGjT3bun7W-8" value="" style="html=1;points=[];perimeter=orthogonalPerimeter;" vertex="1" parent="02eHSVCnHxcGjT3bun7W-6">
                    <mxGeometry x="44" y="70" width="10" height="100" as="geometry"/>
                </mxCell>
                <mxCell id="02eHSVCnHxcGjT3bun7W-9" value="Database Server" style="shape=umlLifeline;perimeter=lifelinePerimeter;whiteSpace=wrap;html=1;container=1;collapsible=0;recursiveResize=0;outlineConnect=0;" vertex="1" parent="ZF3vktFKSFpccjwYsxge-1">
                    <mxGeometry x="530" y="80" width="100" height="240" as="geometry"/>
                </mxCell>
                <mxCell id="02eHSVCnHxcGjT3bun7W-10" value="" style="html=1;points=[];perimeter=orthogonalPerimeter;" vertex="1" parent="02eHSVCnHxcGjT3bun7W-9">
                    <mxGeometry x="45" y="70" width="10" height="100" as="geometry"/>
                </mxCell>
                <mxCell id="02eHSVCnHxcGjT3bun7W-19" value="Request to view article" style="edgeStyle=none;html=1;entryX=0.081;entryY=0.136;entryDx=0;entryDy=0;entryPerimeter=0;" edge="1" parent="ZF3vktFKSFpccjwYsxge-1" source="02eHSVCnHxcGjT3bun7W-2" target="02eHSVCnHxcGjT3bun7W-5">
                    <mxGeometry relative="1" as="geometry"/>
                </mxCell>
                <mxCell id="02eHSVCnHxcGjT3bun7W-20" style="edgeStyle=none;html=1;entryX=-0.419;entryY=0.256;entryDx=0;entryDy=0;entryPerimeter=0;" edge="1" parent="ZF3vktFKSFpccjwYsxge-1" source="02eHSVCnHxcGjT3bun7W-5" target="02eHSVCnHxcGjT3bun7W-8">
                    <mxGeometry relative="1" as="geometry">
                        <Array as="points">
                            <mxPoint x="345" y="176"/>
                        </Array>
                    </mxGeometry>
                </mxCell>
                <mxCell id="02eHSVCnHxcGjT3bun7W-21" value="Forward request" style="edgeLabel;html=1;align=center;verticalAlign=middle;resizable=0;points=[];" vertex="1" connectable="0" parent="02eHSVCnHxcGjT3bun7W-20">
                    <mxGeometry x="0.0746" relative="1" as="geometry">
                        <mxPoint x="-13" y="-6" as="offset"/>
                    </mxGeometry>
                </mxCell>
                <mxCell id="02eHSVCnHxcGjT3bun7W-22" style="edgeStyle=none;html=1;entryX=-0.119;entryY=0.386;entryDx=0;entryDy=0;entryPerimeter=0;" edge="1" parent="ZF3vktFKSFpccjwYsxge-1" source="02eHSVCnHxcGjT3bun7W-8" target="02eHSVCnHxcGjT3bun7W-10">
                    <mxGeometry relative="1" as="geometry"/>
                </mxCell>
                <mxCell id="02eHSVCnHxcGjT3bun7W-23" value="Retrieve article from DB" style="edgeLabel;html=1;align=center;verticalAlign=middle;resizable=0;points=[];" vertex="1" connectable="0" parent="02eHSVCnHxcGjT3bun7W-22">
                    <mxGeometry x="-0.1139" y="-2" relative="1" as="geometry">
                        <mxPoint as="offset"/>
                    </mxGeometry>
                </mxCell>
                <mxCell id="02eHSVCnHxcGjT3bun7W-24" style="edgeStyle=none;html=1;entryX=1.481;entryY=0.646;entryDx=0;entryDy=0;entryPerimeter=0;" edge="1" parent="ZF3vktFKSFpccjwYsxge-1" source="02eHSVCnHxcGjT3bun7W-8" target="02eHSVCnHxcGjT3bun7W-5">
                    <mxGeometry relative="1" as="geometry"/>
                </mxCell>
                <mxCell id="02eHSVCnHxcGjT3bun7W-25" value="Return article" style="edgeLabel;html=1;align=center;verticalAlign=middle;resizable=0;points=[];fontSize=10;" vertex="1" connectable="0" parent="02eHSVCnHxcGjT3bun7W-24">
                    <mxGeometry x="0.4591" relative="1" as="geometry">
                        <mxPoint x="41" y="-5" as="offset"/>
                    </mxGeometry>
                </mxCell>
                <mxCell id="02eHSVCnHxcGjT3bun7W-26" style="edgeStyle=none;html=1;entryX=0.881;entryY=0.766;entryDx=0;entryDy=0;entryPerimeter=0;fontSize=10;" edge="1" parent="ZF3vktFKSFpccjwYsxge-1" source="02eHSVCnHxcGjT3bun7W-5" target="02eHSVCnHxcGjT3bun7W-2">
                    <mxGeometry relative="1" as="geometry"/>
                </mxCell>
                <mxCell id="02eHSVCnHxcGjT3bun7W-27" value="Display article" style="edgeLabel;html=1;align=center;verticalAlign=middle;resizable=0;points=[];fontSize=10;" vertex="1" connectable="0" parent="02eHSVCnHxcGjT3bun7W-26">
                    <mxGeometry x="0.117" y="-1" relative="1" as="geometry">
                        <mxPoint x="6" as="offset"/>
                    </mxGeometry>
                </mxCell>
                <mxCell id="02eHSVCnHxcGjT3bun7W-28" style="edgeStyle=none;html=1;entryX=0.881;entryY=0.55;entryDx=0;entryDy=0;entryPerimeter=0;fontSize=10;" edge="1" parent="ZF3vktFKSFpccjwYsxge-1" source="02eHSVCnHxcGjT3bun7W-10" target="02eHSVCnHxcGjT3bun7W-8">
                    <mxGeometry relative="1" as="geometry"/>
                </mxCell>
                <mxCell id="02eHSVCnHxcGjT3bun7W-29" value="Return article" style="edgeLabel;html=1;align=center;verticalAlign=middle;resizable=0;points=[];fontSize=10;" vertex="1" connectable="0" parent="02eHSVCnHxcGjT3bun7W-28">
                    <mxGeometry x="0.1369" y="3" relative="1" as="geometry">
                        <mxPoint x="7" as="offset"/>
                    </mxGeometry>
                </mxCell>
            </root>
        </mxGraphModel>
    </diagram>
    <diagram id="QgfrA7b409_OfidTea3X" name="Shopping lists">
        <mxGraphModel dx="1031" dy="630" grid="1" gridSize="10" guides="1" tooltips="1" connect="1" arrows="1" fold="1" page="1" pageScale="1" pageWidth="827" pageHeight="1169" math="0" shadow="0">
            <root>
                <mxCell id="ykNOQl65-rreCsUtADhO-0"/>
                <mxCell id="ykNOQl65-rreCsUtADhO-1" parent="ykNOQl65-rreCsUtADhO-0"/>
                <mxCell id="QRgf6GNEwgSrY3KWYpk8-0" value="" style="shape=umlLifeline;participant=umlActor;perimeter=lifelinePerimeter;whiteSpace=wrap;html=1;container=1;collapsible=0;recursiveResize=0;verticalAlign=top;spacingTop=36;outlineConnect=0;" vertex="1" parent="ykNOQl65-rreCsUtADhO-1">
                    <mxGeometry x="50" y="80" width="20" height="650" as="geometry"/>
                </mxCell>
                <mxCell id="QRgf6GNEwgSrY3KWYpk8-1" value="" style="html=1;points=[];perimeter=orthogonalPerimeter;" vertex="1" parent="QRgf6GNEwgSrY3KWYpk8-0">
                    <mxGeometry x="5" y="70" width="10" height="100" as="geometry"/>
                </mxCell>
                <mxCell id="QRgf6GNEwgSrY3KWYpk8-20" value="" style="html=1;points=[];perimeter=orthogonalPerimeter;" vertex="1" parent="QRgf6GNEwgSrY3KWYpk8-0">
                    <mxGeometry x="5" y="190" width="10" height="110" as="geometry"/>
                </mxCell>
                <mxCell id="QRgf6GNEwgSrY3KWYpk8-36" value="" style="html=1;points=[];perimeter=orthogonalPerimeter;" vertex="1" parent="QRgf6GNEwgSrY3KWYpk8-0">
                    <mxGeometry x="5" y="330" width="10" height="110" as="geometry"/>
                </mxCell>
                <mxCell id="QRgf6GNEwgSrY3KWYpk8-53" value="" style="html=1;points=[];perimeter=orthogonalPerimeter;" vertex="1" parent="QRgf6GNEwgSrY3KWYpk8-0">
                    <mxGeometry x="5" y="460" width="10" height="110" as="geometry"/>
                </mxCell>
                <mxCell id="QRgf6GNEwgSrY3KWYpk8-2" value="Web Server" style="shape=umlLifeline;perimeter=lifelinePerimeter;whiteSpace=wrap;html=1;container=1;collapsible=0;recursiveResize=0;outlineConnect=0;" vertex="1" parent="ykNOQl65-rreCsUtADhO-1">
                    <mxGeometry x="200" y="80" width="100" height="650" as="geometry"/>
                </mxCell>
                <mxCell id="QRgf6GNEwgSrY3KWYpk8-3" value="" style="html=1;points=[];perimeter=orthogonalPerimeter;" vertex="1" parent="QRgf6GNEwgSrY3KWYpk8-2">
                    <mxGeometry x="45" y="70" width="10" height="100" as="geometry"/>
                </mxCell>
                <mxCell id="QRgf6GNEwgSrY3KWYpk8-21" value="" style="html=1;points=[];perimeter=orthogonalPerimeter;" vertex="1" parent="QRgf6GNEwgSrY3KWYpk8-2">
                    <mxGeometry x="45" y="190" width="10" height="100" as="geometry"/>
                </mxCell>
                <mxCell id="QRgf6GNEwgSrY3KWYpk8-37" value="" style="html=1;points=[];perimeter=orthogonalPerimeter;" vertex="1" parent="QRgf6GNEwgSrY3KWYpk8-2">
                    <mxGeometry x="45" y="330" width="10" height="110" as="geometry"/>
                </mxCell>
                <mxCell id="QRgf6GNEwgSrY3KWYpk8-54" value="" style="html=1;points=[];perimeter=orthogonalPerimeter;" vertex="1" parent="QRgf6GNEwgSrY3KWYpk8-2">
                    <mxGeometry x="45" y="460" width="10" height="110" as="geometry"/>
                </mxCell>
                <mxCell id="QRgf6GNEwgSrY3KWYpk8-4" value="Application Server" style="shape=umlLifeline;perimeter=lifelinePerimeter;whiteSpace=wrap;html=1;container=1;collapsible=0;recursiveResize=0;outlineConnect=0;" vertex="1" parent="ykNOQl65-rreCsUtADhO-1">
                    <mxGeometry x="360" y="80" width="100" height="650" as="geometry"/>
                </mxCell>
                <mxCell id="QRgf6GNEwgSrY3KWYpk8-5" value="" style="html=1;points=[];perimeter=orthogonalPerimeter;" vertex="1" parent="QRgf6GNEwgSrY3KWYpk8-4">
                    <mxGeometry x="44" y="70" width="10" height="100" as="geometry"/>
                </mxCell>
                <mxCell id="QRgf6GNEwgSrY3KWYpk8-22" value="" style="html=1;points=[];perimeter=orthogonalPerimeter;" vertex="1" parent="QRgf6GNEwgSrY3KWYpk8-4">
                    <mxGeometry x="44" y="190" width="10" height="100" as="geometry"/>
                </mxCell>
                <mxCell id="QRgf6GNEwgSrY3KWYpk8-38" value="" style="html=1;points=[];perimeter=orthogonalPerimeter;" vertex="1" parent="QRgf6GNEwgSrY3KWYpk8-4">
                    <mxGeometry x="44" y="330" width="10" height="110" as="geometry"/>
                </mxCell>
                <mxCell id="QRgf6GNEwgSrY3KWYpk8-55" value="" style="html=1;points=[];perimeter=orthogonalPerimeter;" vertex="1" parent="QRgf6GNEwgSrY3KWYpk8-4">
                    <mxGeometry x="44" y="460" width="10" height="110" as="geometry"/>
                </mxCell>
                <mxCell id="QRgf6GNEwgSrY3KWYpk8-6" value="Database Server" style="shape=umlLifeline;perimeter=lifelinePerimeter;whiteSpace=wrap;html=1;container=1;collapsible=0;recursiveResize=0;outlineConnect=0;" vertex="1" parent="ykNOQl65-rreCsUtADhO-1">
                    <mxGeometry x="580" y="80" width="100" height="650" as="geometry"/>
                </mxCell>
                <mxCell id="QRgf6GNEwgSrY3KWYpk8-23" value="" style="html=1;points=[];perimeter=orthogonalPerimeter;" vertex="1" parent="QRgf6GNEwgSrY3KWYpk8-6">
                    <mxGeometry x="45" y="190" width="10" height="100" as="geometry"/>
                </mxCell>
                <mxCell id="QRgf6GNEwgSrY3KWYpk8-39" value="" style="html=1;points=[];perimeter=orthogonalPerimeter;" vertex="1" parent="QRgf6GNEwgSrY3KWYpk8-6">
                    <mxGeometry x="45" y="330" width="10" height="110" as="geometry"/>
                </mxCell>
                <mxCell id="QRgf6GNEwgSrY3KWYpk8-56" value="" style="html=1;points=[];perimeter=orthogonalPerimeter;" vertex="1" parent="QRgf6GNEwgSrY3KWYpk8-6">
                    <mxGeometry x="45" y="460" width="10" height="110" as="geometry"/>
                </mxCell>
                <mxCell id="QRgf6GNEwgSrY3KWYpk8-8" value="Request to create a shopping list" style="edgeStyle=none;html=1;entryX=0.081;entryY=0.136;entryDx=0;entryDy=0;entryPerimeter=0;" edge="1" parent="ykNOQl65-rreCsUtADhO-1" source="QRgf6GNEwgSrY3KWYpk8-1" target="QRgf6GNEwgSrY3KWYpk8-3">
                    <mxGeometry relative="1" as="geometry"/>
                </mxCell>
                <mxCell id="QRgf6GNEwgSrY3KWYpk8-9" style="edgeStyle=none;html=1;entryX=-0.419;entryY=0.256;entryDx=0;entryDy=0;entryPerimeter=0;" edge="1" parent="ykNOQl65-rreCsUtADhO-1" source="QRgf6GNEwgSrY3KWYpk8-3" target="QRgf6GNEwgSrY3KWYpk8-5">
                    <mxGeometry relative="1" as="geometry">
                        <Array as="points">
                            <mxPoint x="345" y="176"/>
                        </Array>
                    </mxGeometry>
                </mxCell>
                <mxCell id="QRgf6GNEwgSrY3KWYpk8-10" value="Forward request" style="edgeLabel;html=1;align=center;verticalAlign=middle;resizable=0;points=[];" vertex="1" connectable="0" parent="QRgf6GNEwgSrY3KWYpk8-9">
                    <mxGeometry x="0.0746" relative="1" as="geometry">
                        <mxPoint x="-13" y="-6" as="offset"/>
                    </mxGeometry>
                </mxCell>
                <mxCell id="QRgf6GNEwgSrY3KWYpk8-13" style="edgeStyle=none;html=1;entryX=1.481;entryY=0.646;entryDx=0;entryDy=0;entryPerimeter=0;" edge="1" parent="ykNOQl65-rreCsUtADhO-1" source="QRgf6GNEwgSrY3KWYpk8-5" target="QRgf6GNEwgSrY3KWYpk8-3">
                    <mxGeometry relative="1" as="geometry"/>
                </mxCell>
                <mxCell id="QRgf6GNEwgSrY3KWYpk8-14" value="Return shopping list form" style="edgeLabel;html=1;align=center;verticalAlign=middle;resizable=0;points=[];fontSize=10;" vertex="1" connectable="0" parent="QRgf6GNEwgSrY3KWYpk8-13">
                    <mxGeometry x="0.4591" relative="1" as="geometry">
                        <mxPoint x="41" y="-5" as="offset"/>
                    </mxGeometry>
                </mxCell>
                <mxCell id="QRgf6GNEwgSrY3KWYpk8-15" style="edgeStyle=none;html=1;entryX=0.881;entryY=0.766;entryDx=0;entryDy=0;entryPerimeter=0;fontSize=10;" edge="1" parent="ykNOQl65-rreCsUtADhO-1" source="QRgf6GNEwgSrY3KWYpk8-3" target="QRgf6GNEwgSrY3KWYpk8-1">
                    <mxGeometry relative="1" as="geometry"/>
                </mxCell>
                <mxCell id="QRgf6GNEwgSrY3KWYpk8-16" value="Display shopping list form" style="edgeLabel;html=1;align=center;verticalAlign=middle;resizable=0;points=[];fontSize=10;" vertex="1" connectable="0" parent="QRgf6GNEwgSrY3KWYpk8-15">
                    <mxGeometry x="0.117" y="-1" relative="1" as="geometry">
                        <mxPoint x="6" as="offset"/>
                    </mxGeometry>
                </mxCell>
                <mxCell id="QRgf6GNEwgSrY3KWYpk8-24" style="edgeStyle=none;html=1;entryX=-0.019;entryY=0.164;entryDx=0;entryDy=0;entryPerimeter=0;fontSize=10;" edge="1" parent="ykNOQl65-rreCsUtADhO-1" source="QRgf6GNEwgSrY3KWYpk8-20" target="QRgf6GNEwgSrY3KWYpk8-21">
                    <mxGeometry relative="1" as="geometry"/>
                </mxCell>
                <mxCell id="QRgf6GNEwgSrY3KWYpk8-25" value="Input items and add to list" style="edgeLabel;html=1;align=center;verticalAlign=middle;resizable=0;points=[];fontSize=10;" vertex="1" connectable="0" parent="QRgf6GNEwgSrY3KWYpk8-24">
                    <mxGeometry x="-0.1123" y="2" relative="1" as="geometry">
                        <mxPoint x="4" y="-6" as="offset"/>
                    </mxGeometry>
                </mxCell>
                <mxCell id="QRgf6GNEwgSrY3KWYpk8-26" style="edgeStyle=none;html=1;entryX=-0.119;entryY=0.334;entryDx=0;entryDy=0;entryPerimeter=0;fontSize=10;" edge="1" parent="ykNOQl65-rreCsUtADhO-1" source="QRgf6GNEwgSrY3KWYpk8-21" target="QRgf6GNEwgSrY3KWYpk8-22">
                    <mxGeometry relative="1" as="geometry"/>
                </mxCell>
                <mxCell id="QRgf6GNEwgSrY3KWYpk8-27" value="Forward request" style="edgeLabel;html=1;align=center;verticalAlign=middle;resizable=0;points=[];fontSize=10;" vertex="1" connectable="0" parent="QRgf6GNEwgSrY3KWYpk8-26">
                    <mxGeometry x="-0.1231" y="2" relative="1" as="geometry">
                        <mxPoint as="offset"/>
                    </mxGeometry>
                </mxCell>
                <mxCell id="QRgf6GNEwgSrY3KWYpk8-28" style="edgeStyle=none;html=1;entryX=-0.119;entryY=0.454;entryDx=0;entryDy=0;entryPerimeter=0;fontSize=10;" edge="1" parent="ykNOQl65-rreCsUtADhO-1" source="QRgf6GNEwgSrY3KWYpk8-22" target="QRgf6GNEwgSrY3KWYpk8-23">
                    <mxGeometry relative="1" as="geometry"/>
                </mxCell>
                <mxCell id="QRgf6GNEwgSrY3KWYpk8-29" value="Store items in database" style="edgeLabel;html=1;align=center;verticalAlign=middle;resizable=0;points=[];fontSize=10;" vertex="1" connectable="0" parent="QRgf6GNEwgSrY3KWYpk8-28">
                    <mxGeometry x="-0.1014" y="3" relative="1" as="geometry">
                        <mxPoint as="offset"/>
                    </mxGeometry>
                </mxCell>
                <mxCell id="QRgf6GNEwgSrY3KWYpk8-30" style="edgeStyle=none;html=1;fontSize=10;" edge="1" parent="ykNOQl65-rreCsUtADhO-1" source="QRgf6GNEwgSrY3KWYpk8-23" target="QRgf6GNEwgSrY3KWYpk8-4">
                    <mxGeometry relative="1" as="geometry">
                        <Array as="points">
                            <mxPoint x="550" y="340"/>
                        </Array>
                    </mxGeometry>
                </mxCell>
                <mxCell id="QRgf6GNEwgSrY3KWYpk8-31" value="Return success message" style="edgeLabel;html=1;align=center;verticalAlign=middle;resizable=0;points=[];fontSize=10;" vertex="1" connectable="0" parent="QRgf6GNEwgSrY3KWYpk8-30">
                    <mxGeometry x="0.1885" y="-4" relative="1" as="geometry">
                        <mxPoint as="offset"/>
                    </mxGeometry>
                </mxCell>
                <mxCell id="QRgf6GNEwgSrY3KWYpk8-32" value="Return success message" style="edgeStyle=none;html=1;entryX=1.181;entryY=0.804;entryDx=0;entryDy=0;entryPerimeter=0;fontSize=10;" edge="1" parent="ykNOQl65-rreCsUtADhO-1" source="QRgf6GNEwgSrY3KWYpk8-22" target="QRgf6GNEwgSrY3KWYpk8-21">
                    <mxGeometry relative="1" as="geometry"/>
                </mxCell>
                <mxCell id="QRgf6GNEwgSrY3KWYpk8-33" style="edgeStyle=none;html=1;entryX=0.981;entryY=0.867;entryDx=0;entryDy=0;entryPerimeter=0;fontSize=10;" edge="1" parent="ykNOQl65-rreCsUtADhO-1" source="QRgf6GNEwgSrY3KWYpk8-21" target="QRgf6GNEwgSrY3KWYpk8-20">
                    <mxGeometry relative="1" as="geometry"/>
                </mxCell>
                <mxCell id="QRgf6GNEwgSrY3KWYpk8-34" value="Return success message" style="edgeLabel;html=1;align=center;verticalAlign=middle;resizable=0;points=[];fontSize=10;" vertex="1" connectable="0" parent="QRgf6GNEwgSrY3KWYpk8-33">
                    <mxGeometry x="0.323" y="-4" relative="1" as="geometry">
                        <mxPoint x="24" y="-1" as="offset"/>
                    </mxGeometry>
                </mxCell>
                <mxCell id="QRgf6GNEwgSrY3KWYpk8-40" style="edgeStyle=none;html=1;entryX=-0.019;entryY=0.113;entryDx=0;entryDy=0;entryPerimeter=0;fontSize=10;" edge="1" parent="ykNOQl65-rreCsUtADhO-1" source="QRgf6GNEwgSrY3KWYpk8-36" target="QRgf6GNEwgSrY3KWYpk8-37">
                    <mxGeometry relative="1" as="geometry"/>
                </mxCell>
                <mxCell id="QRgf6GNEwgSrY3KWYpk8-41" value="Request to view shopping list" style="edgeLabel;html=1;align=center;verticalAlign=middle;resizable=0;points=[];fontSize=10;" vertex="1" connectable="0" parent="QRgf6GNEwgSrY3KWYpk8-40">
                    <mxGeometry x="-0.2124" y="-2" relative="1" as="geometry">
                        <mxPoint x="24" y="-14" as="offset"/>
                    </mxGeometry>
                </mxCell>
                <mxCell id="QRgf6GNEwgSrY3KWYpk8-42" style="edgeStyle=none;html=1;entryX=-0.119;entryY=0.213;entryDx=0;entryDy=0;entryPerimeter=0;fontSize=10;" edge="1" parent="ykNOQl65-rreCsUtADhO-1" source="QRgf6GNEwgSrY3KWYpk8-37" target="QRgf6GNEwgSrY3KWYpk8-38">
                    <mxGeometry relative="1" as="geometry"/>
                </mxCell>
                <mxCell id="QRgf6GNEwgSrY3KWYpk8-43" value="Forward request" style="edgeLabel;html=1;align=center;verticalAlign=middle;resizable=0;points=[];fontSize=10;" vertex="1" connectable="0" parent="QRgf6GNEwgSrY3KWYpk8-42">
                    <mxGeometry x="-0.1502" y="3" relative="1" as="geometry">
                        <mxPoint x="2" as="offset"/>
                    </mxGeometry>
                </mxCell>
                <mxCell id="QRgf6GNEwgSrY3KWYpk8-44" style="edgeStyle=none;html=1;entryX=-0.219;entryY=0.404;entryDx=0;entryDy=0;entryPerimeter=0;fontSize=10;" edge="1" parent="ykNOQl65-rreCsUtADhO-1" source="QRgf6GNEwgSrY3KWYpk8-38" target="QRgf6GNEwgSrY3KWYpk8-39">
                    <mxGeometry relative="1" as="geometry"/>
                </mxCell>
                <mxCell id="QRgf6GNEwgSrY3KWYpk8-45" value="Retrieve shopping list from database" style="edgeLabel;html=1;align=center;verticalAlign=middle;resizable=0;points=[];fontSize=10;" vertex="1" connectable="0" parent="QRgf6GNEwgSrY3KWYpk8-44">
                    <mxGeometry x="-0.0075" relative="1" as="geometry">
                        <mxPoint as="offset"/>
                    </mxGeometry>
                </mxCell>
                <mxCell id="QRgf6GNEwgSrY3KWYpk8-46" style="edgeStyle=none;html=1;entryX=0.981;entryY=0.64;entryDx=0;entryDy=0;entryPerimeter=0;fontSize=10;" edge="1" parent="ykNOQl65-rreCsUtADhO-1" source="QRgf6GNEwgSrY3KWYpk8-39" target="QRgf6GNEwgSrY3KWYpk8-38">
                    <mxGeometry relative="1" as="geometry"/>
                </mxCell>
                <mxCell id="QRgf6GNEwgSrY3KWYpk8-47" value="Return shopping list" style="edgeLabel;html=1;align=center;verticalAlign=middle;resizable=0;points=[];fontSize=10;" vertex="1" connectable="0" parent="QRgf6GNEwgSrY3KWYpk8-46">
                    <mxGeometry x="0.1856" y="-3" relative="1" as="geometry">
                        <mxPoint as="offset"/>
                    </mxGeometry>
                </mxCell>
                <mxCell id="QRgf6GNEwgSrY3KWYpk8-48" style="edgeStyle=none;html=1;entryX=1.081;entryY=0.804;entryDx=0;entryDy=0;entryPerimeter=0;fontSize=10;" edge="1" parent="ykNOQl65-rreCsUtADhO-1" source="QRgf6GNEwgSrY3KWYpk8-38" target="QRgf6GNEwgSrY3KWYpk8-37">
                    <mxGeometry relative="1" as="geometry"/>
                </mxCell>
                <mxCell id="QRgf6GNEwgSrY3KWYpk8-49" value="Return shopping list" style="edgeLabel;html=1;align=center;verticalAlign=middle;resizable=0;points=[];fontSize=10;" vertex="1" connectable="0" parent="QRgf6GNEwgSrY3KWYpk8-48">
                    <mxGeometry x="0.1363" y="-1" relative="1" as="geometry">
                        <mxPoint y="-7" as="offset"/>
                    </mxGeometry>
                </mxCell>
                <mxCell id="QRgf6GNEwgSrY3KWYpk8-50" style="edgeStyle=none;html=1;entryX=1.081;entryY=0.949;entryDx=0;entryDy=0;entryPerimeter=0;fontSize=10;" edge="1" parent="ykNOQl65-rreCsUtADhO-1" source="QRgf6GNEwgSrY3KWYpk8-37" target="QRgf6GNEwgSrY3KWYpk8-36">
                    <mxGeometry relative="1" as="geometry"/>
                </mxCell>
                <mxCell id="QRgf6GNEwgSrY3KWYpk8-52" value="Display shopping list" style="edgeLabel;html=1;align=center;verticalAlign=middle;resizable=0;points=[];fontSize=10;" vertex="1" connectable="0" parent="QRgf6GNEwgSrY3KWYpk8-50">
                    <mxGeometry x="-0.0268" y="2" relative="1" as="geometry">
                        <mxPoint y="-6" as="offset"/>
                    </mxGeometry>
                </mxCell>
                <mxCell id="QRgf6GNEwgSrY3KWYpk8-57" style="edgeStyle=none;html=1;entryX=-0.019;entryY=0.167;entryDx=0;entryDy=0;entryPerimeter=0;fontSize=10;" edge="1" parent="ykNOQl65-rreCsUtADhO-1" source="QRgf6GNEwgSrY3KWYpk8-53" target="QRgf6GNEwgSrY3KWYpk8-54">
                    <mxGeometry relative="1" as="geometry"/>
                </mxCell>
                <mxCell id="QRgf6GNEwgSrY3KWYpk8-58" value="Request to clear shopping list" style="edgeLabel;html=1;align=center;verticalAlign=middle;resizable=0;points=[];fontSize=10;" vertex="1" connectable="0" parent="QRgf6GNEwgSrY3KWYpk8-57">
                    <mxGeometry x="-0.1457" y="2" relative="1" as="geometry">
                        <mxPoint x="8" as="offset"/>
                    </mxGeometry>
                </mxCell>
                <mxCell id="QRgf6GNEwgSrY3KWYpk8-59" style="edgeStyle=none;html=1;entryX=-0.119;entryY=0.295;entryDx=0;entryDy=0;entryPerimeter=0;fontSize=10;" edge="1" parent="ykNOQl65-rreCsUtADhO-1" source="QRgf6GNEwgSrY3KWYpk8-54" target="QRgf6GNEwgSrY3KWYpk8-55">
                    <mxGeometry relative="1" as="geometry"/>
                </mxCell>
                <mxCell id="QRgf6GNEwgSrY3KWYpk8-60" value="Forward request" style="edgeLabel;html=1;align=center;verticalAlign=middle;resizable=0;points=[];fontSize=10;" vertex="1" connectable="0" parent="QRgf6GNEwgSrY3KWYpk8-59">
                    <mxGeometry x="0.0663" relative="1" as="geometry">
                        <mxPoint as="offset"/>
                    </mxGeometry>
                </mxCell>
                <mxCell id="QRgf6GNEwgSrY3KWYpk8-61" style="edgeStyle=none;html=1;entryX=-0.019;entryY=0.476;entryDx=0;entryDy=0;entryPerimeter=0;fontSize=10;" edge="1" parent="ykNOQl65-rreCsUtADhO-1" source="QRgf6GNEwgSrY3KWYpk8-55" target="QRgf6GNEwgSrY3KWYpk8-56">
                    <mxGeometry relative="1" as="geometry"/>
                </mxCell>
                <mxCell id="QRgf6GNEwgSrY3KWYpk8-62" value="Clear shopping list in database" style="edgeLabel;html=1;align=center;verticalAlign=middle;resizable=0;points=[];fontSize=10;" vertex="1" connectable="0" parent="QRgf6GNEwgSrY3KWYpk8-61">
                    <mxGeometry x="-0.0531" y="3" relative="1" as="geometry">
                        <mxPoint as="offset"/>
                    </mxGeometry>
                </mxCell>
                <mxCell id="QRgf6GNEwgSrY3KWYpk8-63" style="edgeStyle=none;html=1;entryX=1.081;entryY=0.722;entryDx=0;entryDy=0;entryPerimeter=0;fontSize=10;" edge="1" parent="ykNOQl65-rreCsUtADhO-1" source="QRgf6GNEwgSrY3KWYpk8-56" target="QRgf6GNEwgSrY3KWYpk8-55">
                    <mxGeometry relative="1" as="geometry"/>
                </mxCell>
                <mxCell id="QRgf6GNEwgSrY3KWYpk8-64" value="Return success message" style="edgeLabel;html=1;align=center;verticalAlign=middle;resizable=0;points=[];fontSize=10;" vertex="1" connectable="0" parent="QRgf6GNEwgSrY3KWYpk8-63">
                    <mxGeometry x="0.1056" y="1" relative="1" as="geometry">
                        <mxPoint as="offset"/>
                    </mxGeometry>
                </mxCell>
                <mxCell id="QRgf6GNEwgSrY3KWYpk8-65" style="edgeStyle=none;html=1;entryX=1.181;entryY=0.867;entryDx=0;entryDy=0;entryPerimeter=0;fontSize=10;" edge="1" parent="ykNOQl65-rreCsUtADhO-1" source="QRgf6GNEwgSrY3KWYpk8-55" target="QRgf6GNEwgSrY3KWYpk8-54">
                    <mxGeometry relative="1" as="geometry"/>
                </mxCell>
                <mxCell id="QRgf6GNEwgSrY3KWYpk8-66" value="Return success message" style="edgeLabel;html=1;align=center;verticalAlign=middle;resizable=0;points=[];fontSize=10;" vertex="1" connectable="0" parent="QRgf6GNEwgSrY3KWYpk8-65">
                    <mxGeometry x="0.3478" y="-1" relative="1" as="geometry">
                        <mxPoint x="25" y="-4" as="offset"/>
                    </mxGeometry>
                </mxCell>
                <mxCell id="QRgf6GNEwgSrY3KWYpk8-67" style="edgeStyle=none;html=1;entryX=0.881;entryY=0.967;entryDx=0;entryDy=0;entryPerimeter=0;fontSize=10;" edge="1" parent="ykNOQl65-rreCsUtADhO-1" source="QRgf6GNEwgSrY3KWYpk8-54" target="QRgf6GNEwgSrY3KWYpk8-53">
                    <mxGeometry relative="1" as="geometry"/>
                </mxCell>
                <mxCell id="QRgf6GNEwgSrY3KWYpk8-68" value="Display success message" style="edgeLabel;html=1;align=center;verticalAlign=middle;resizable=0;points=[];fontSize=10;" vertex="1" connectable="0" parent="QRgf6GNEwgSrY3KWYpk8-67">
                    <mxGeometry x="0.1832" y="-4" relative="1" as="geometry">
                        <mxPoint x="12" y="-2" as="offset"/>
                    </mxGeometry>
                </mxCell>
            </root>
        </mxGraphModel>
    </diagram>
    <diagram id="WeSRcct4NN8nMoH9BMy5" name="Manage Virtual Pantry">
        <mxGraphModel dx="1318" dy="804" grid="1" gridSize="10" guides="1" tooltips="1" connect="1" arrows="1" fold="1" page="1" pageScale="1" pageWidth="827" pageHeight="1169" math="0" shadow="0">
            <root>
                <mxCell id="9b1Kya3vGvgj5nDECEOc-0"/>
                <mxCell id="9b1Kya3vGvgj5nDECEOc-1" parent="9b1Kya3vGvgj5nDECEOc-0"/>
                <mxCell id="K7z8mhnCCRL-juo2-62L-0" value="" style="shape=umlLifeline;participant=umlActor;perimeter=lifelinePerimeter;whiteSpace=wrap;html=1;container=1;collapsible=0;recursiveResize=0;verticalAlign=top;spacingTop=36;outlineConnect=0;" vertex="1" parent="9b1Kya3vGvgj5nDECEOc-1">
                    <mxGeometry x="50" y="80" width="20" height="650" as="geometry"/>
                </mxCell>
                <mxCell id="K7z8mhnCCRL-juo2-62L-1" value="" style="html=1;points=[];perimeter=orthogonalPerimeter;" vertex="1" parent="K7z8mhnCCRL-juo2-62L-0">
                    <mxGeometry x="5" y="70" width="10" height="100" as="geometry"/>
                </mxCell>
                <mxCell id="K7z8mhnCCRL-juo2-62L-2" value="" style="html=1;points=[];perimeter=orthogonalPerimeter;" vertex="1" parent="K7z8mhnCCRL-juo2-62L-0">
                    <mxGeometry x="5" y="190" width="10" height="110" as="geometry"/>
                </mxCell>
                <mxCell id="K7z8mhnCCRL-juo2-62L-3" value="" style="html=1;points=[];perimeter=orthogonalPerimeter;" vertex="1" parent="K7z8mhnCCRL-juo2-62L-0">
                    <mxGeometry x="5" y="330" width="10" height="110" as="geometry"/>
                </mxCell>
                <mxCell id="K7z8mhnCCRL-juo2-62L-4" value="" style="html=1;points=[];perimeter=orthogonalPerimeter;" vertex="1" parent="K7z8mhnCCRL-juo2-62L-0">
                    <mxGeometry x="5" y="460" width="10" height="110" as="geometry"/>
                </mxCell>
                <mxCell id="K7z8mhnCCRL-juo2-62L-5" value="Web Server" style="shape=umlLifeline;perimeter=lifelinePerimeter;whiteSpace=wrap;html=1;container=1;collapsible=0;recursiveResize=0;outlineConnect=0;" vertex="1" parent="9b1Kya3vGvgj5nDECEOc-1">
                    <mxGeometry x="200" y="80" width="100" height="650" as="geometry"/>
                </mxCell>
                <mxCell id="K7z8mhnCCRL-juo2-62L-6" value="" style="html=1;points=[];perimeter=orthogonalPerimeter;" vertex="1" parent="K7z8mhnCCRL-juo2-62L-5">
                    <mxGeometry x="45" y="70" width="10" height="100" as="geometry"/>
                </mxCell>
                <mxCell id="K7z8mhnCCRL-juo2-62L-7" value="" style="html=1;points=[];perimeter=orthogonalPerimeter;" vertex="1" parent="K7z8mhnCCRL-juo2-62L-5">
                    <mxGeometry x="45" y="190" width="10" height="100" as="geometry"/>
                </mxCell>
                <mxCell id="K7z8mhnCCRL-juo2-62L-8" value="" style="html=1;points=[];perimeter=orthogonalPerimeter;" vertex="1" parent="K7z8mhnCCRL-juo2-62L-5">
                    <mxGeometry x="45" y="330" width="10" height="110" as="geometry"/>
                </mxCell>
                <mxCell id="K7z8mhnCCRL-juo2-62L-9" value="" style="html=1;points=[];perimeter=orthogonalPerimeter;" vertex="1" parent="K7z8mhnCCRL-juo2-62L-5">
                    <mxGeometry x="45" y="460" width="10" height="110" as="geometry"/>
                </mxCell>
                <mxCell id="K7z8mhnCCRL-juo2-62L-10" value="Application Server" style="shape=umlLifeline;perimeter=lifelinePerimeter;whiteSpace=wrap;html=1;container=1;collapsible=0;recursiveResize=0;outlineConnect=0;" vertex="1" parent="9b1Kya3vGvgj5nDECEOc-1">
                    <mxGeometry x="360" y="80" width="100" height="650" as="geometry"/>
                </mxCell>
                <mxCell id="K7z8mhnCCRL-juo2-62L-11" value="" style="html=1;points=[];perimeter=orthogonalPerimeter;" vertex="1" parent="K7z8mhnCCRL-juo2-62L-10">
                    <mxGeometry x="44" y="70" width="10" height="100" as="geometry"/>
                </mxCell>
                <mxCell id="K7z8mhnCCRL-juo2-62L-12" value="" style="html=1;points=[];perimeter=orthogonalPerimeter;" vertex="1" parent="K7z8mhnCCRL-juo2-62L-10">
                    <mxGeometry x="44" y="190" width="10" height="100" as="geometry"/>
                </mxCell>
                <mxCell id="K7z8mhnCCRL-juo2-62L-13" value="" style="html=1;points=[];perimeter=orthogonalPerimeter;" vertex="1" parent="K7z8mhnCCRL-juo2-62L-10">
                    <mxGeometry x="44" y="330" width="10" height="110" as="geometry"/>
                </mxCell>
                <mxCell id="K7z8mhnCCRL-juo2-62L-14" value="" style="html=1;points=[];perimeter=orthogonalPerimeter;" vertex="1" parent="K7z8mhnCCRL-juo2-62L-10">
                    <mxGeometry x="44" y="460" width="10" height="110" as="geometry"/>
                </mxCell>
                <mxCell id="K7z8mhnCCRL-juo2-62L-15" value="Database Server" style="shape=umlLifeline;perimeter=lifelinePerimeter;whiteSpace=wrap;html=1;container=1;collapsible=0;recursiveResize=0;outlineConnect=0;" vertex="1" parent="9b1Kya3vGvgj5nDECEOc-1">
                    <mxGeometry x="580" y="80" width="100" height="650" as="geometry"/>
                </mxCell>
                <mxCell id="K7z8mhnCCRL-juo2-62L-16" value="" style="html=1;points=[];perimeter=orthogonalPerimeter;" vertex="1" parent="K7z8mhnCCRL-juo2-62L-15">
                    <mxGeometry x="45" y="190" width="10" height="100" as="geometry"/>
                </mxCell>
                <mxCell id="K7z8mhnCCRL-juo2-62L-17" value="" style="html=1;points=[];perimeter=orthogonalPerimeter;" vertex="1" parent="K7z8mhnCCRL-juo2-62L-15">
                    <mxGeometry x="45" y="330" width="10" height="110" as="geometry"/>
                </mxCell>
                <mxCell id="K7z8mhnCCRL-juo2-62L-18" value="" style="html=1;points=[];perimeter=orthogonalPerimeter;" vertex="1" parent="K7z8mhnCCRL-juo2-62L-15">
                    <mxGeometry x="45" y="460" width="10" height="110" as="geometry"/>
                </mxCell>
                <mxCell id="K7z8mhnCCRL-juo2-62L-19" value="Request to create a&amp;nbsp;&lt;br&gt;virtual pantry" style="edgeStyle=none;html=1;entryX=0.081;entryY=0.136;entryDx=0;entryDy=0;entryPerimeter=0;" edge="1" parent="9b1Kya3vGvgj5nDECEOc-1" source="K7z8mhnCCRL-juo2-62L-1" target="K7z8mhnCCRL-juo2-62L-6">
                    <mxGeometry relative="1" as="geometry"/>
                </mxCell>
                <mxCell id="K7z8mhnCCRL-juo2-62L-20" style="edgeStyle=none;html=1;entryX=-0.419;entryY=0.256;entryDx=0;entryDy=0;entryPerimeter=0;" edge="1" parent="9b1Kya3vGvgj5nDECEOc-1" source="K7z8mhnCCRL-juo2-62L-6" target="K7z8mhnCCRL-juo2-62L-11">
                    <mxGeometry relative="1" as="geometry">
                        <Array as="points">
                            <mxPoint x="345" y="176"/>
                        </Array>
                    </mxGeometry>
                </mxCell>
                <mxCell id="K7z8mhnCCRL-juo2-62L-21" value="Forward request" style="edgeLabel;html=1;align=center;verticalAlign=middle;resizable=0;points=[];" vertex="1" connectable="0" parent="K7z8mhnCCRL-juo2-62L-20">
                    <mxGeometry x="0.0746" relative="1" as="geometry">
                        <mxPoint x="-13" y="-6" as="offset"/>
                    </mxGeometry>
                </mxCell>
                <mxCell id="K7z8mhnCCRL-juo2-62L-22" style="edgeStyle=none;html=1;entryX=1.481;entryY=0.646;entryDx=0;entryDy=0;entryPerimeter=0;" edge="1" parent="9b1Kya3vGvgj5nDECEOc-1" source="K7z8mhnCCRL-juo2-62L-11" target="K7z8mhnCCRL-juo2-62L-6">
                    <mxGeometry relative="1" as="geometry"/>
                </mxCell>
                <mxCell id="K7z8mhnCCRL-juo2-62L-23" value="Return virtual pantry&lt;br&gt;form" style="edgeLabel;html=1;align=center;verticalAlign=middle;resizable=0;points=[];fontSize=10;" vertex="1" connectable="0" parent="K7z8mhnCCRL-juo2-62L-22">
                    <mxGeometry x="0.4591" relative="1" as="geometry">
                        <mxPoint x="41" y="-5" as="offset"/>
                    </mxGeometry>
                </mxCell>
                <mxCell id="K7z8mhnCCRL-juo2-62L-24" style="edgeStyle=none;html=1;entryX=0.881;entryY=0.766;entryDx=0;entryDy=0;entryPerimeter=0;fontSize=10;" edge="1" parent="9b1Kya3vGvgj5nDECEOc-1" source="K7z8mhnCCRL-juo2-62L-6" target="K7z8mhnCCRL-juo2-62L-1">
                    <mxGeometry relative="1" as="geometry"/>
                </mxCell>
                <mxCell id="K7z8mhnCCRL-juo2-62L-25" value="Display virtual pantry form" style="edgeLabel;html=1;align=center;verticalAlign=middle;resizable=0;points=[];fontSize=10;" vertex="1" connectable="0" parent="K7z8mhnCCRL-juo2-62L-24">
                    <mxGeometry x="0.117" y="-1" relative="1" as="geometry">
                        <mxPoint x="6" as="offset"/>
                    </mxGeometry>
                </mxCell>
                <mxCell id="K7z8mhnCCRL-juo2-62L-26" style="edgeStyle=none;html=1;entryX=-0.019;entryY=0.164;entryDx=0;entryDy=0;entryPerimeter=0;fontSize=10;" edge="1" parent="9b1Kya3vGvgj5nDECEOc-1" source="K7z8mhnCCRL-juo2-62L-2" target="K7z8mhnCCRL-juo2-62L-7">
                    <mxGeometry relative="1" as="geometry"/>
                </mxCell>
                <mxCell id="K7z8mhnCCRL-juo2-62L-27" value="Input items and add to a &lt;br&gt;pantry" style="edgeLabel;html=1;align=center;verticalAlign=middle;resizable=0;points=[];fontSize=10;" vertex="1" connectable="0" parent="K7z8mhnCCRL-juo2-62L-26">
                    <mxGeometry x="-0.1123" y="2" relative="1" as="geometry">
                        <mxPoint x="4" y="-6" as="offset"/>
                    </mxGeometry>
                </mxCell>
                <mxCell id="K7z8mhnCCRL-juo2-62L-28" style="edgeStyle=none;html=1;entryX=-0.119;entryY=0.334;entryDx=0;entryDy=0;entryPerimeter=0;fontSize=10;" edge="1" parent="9b1Kya3vGvgj5nDECEOc-1" source="K7z8mhnCCRL-juo2-62L-7" target="K7z8mhnCCRL-juo2-62L-12">
                    <mxGeometry relative="1" as="geometry"/>
                </mxCell>
                <mxCell id="K7z8mhnCCRL-juo2-62L-29" value="Forward request" style="edgeLabel;html=1;align=center;verticalAlign=middle;resizable=0;points=[];fontSize=10;" vertex="1" connectable="0" parent="K7z8mhnCCRL-juo2-62L-28">
                    <mxGeometry x="-0.1231" y="2" relative="1" as="geometry">
                        <mxPoint as="offset"/>
                    </mxGeometry>
                </mxCell>
                <mxCell id="K7z8mhnCCRL-juo2-62L-30" style="edgeStyle=none;html=1;entryX=-0.119;entryY=0.454;entryDx=0;entryDy=0;entryPerimeter=0;fontSize=10;" edge="1" parent="9b1Kya3vGvgj5nDECEOc-1" source="K7z8mhnCCRL-juo2-62L-12" target="K7z8mhnCCRL-juo2-62L-16">
                    <mxGeometry relative="1" as="geometry"/>
                </mxCell>
                <mxCell id="K7z8mhnCCRL-juo2-62L-31" value="Store items in database" style="edgeLabel;html=1;align=center;verticalAlign=middle;resizable=0;points=[];fontSize=10;" vertex="1" connectable="0" parent="K7z8mhnCCRL-juo2-62L-30">
                    <mxGeometry x="-0.1014" y="3" relative="1" as="geometry">
                        <mxPoint as="offset"/>
                    </mxGeometry>
                </mxCell>
                <mxCell id="K7z8mhnCCRL-juo2-62L-32" style="edgeStyle=none;html=1;fontSize=10;" edge="1" parent="9b1Kya3vGvgj5nDECEOc-1" source="K7z8mhnCCRL-juo2-62L-16" target="K7z8mhnCCRL-juo2-62L-10">
                    <mxGeometry relative="1" as="geometry">
                        <Array as="points">
                            <mxPoint x="550" y="340"/>
                        </Array>
                    </mxGeometry>
                </mxCell>
                <mxCell id="K7z8mhnCCRL-juo2-62L-33" value="Return success message" style="edgeLabel;html=1;align=center;verticalAlign=middle;resizable=0;points=[];fontSize=10;" vertex="1" connectable="0" parent="K7z8mhnCCRL-juo2-62L-32">
                    <mxGeometry x="0.1885" y="-4" relative="1" as="geometry">
                        <mxPoint as="offset"/>
                    </mxGeometry>
                </mxCell>
                <mxCell id="K7z8mhnCCRL-juo2-62L-34" value="Return success message" style="edgeStyle=none;html=1;entryX=1.181;entryY=0.804;entryDx=0;entryDy=0;entryPerimeter=0;fontSize=10;" edge="1" parent="9b1Kya3vGvgj5nDECEOc-1" source="K7z8mhnCCRL-juo2-62L-12" target="K7z8mhnCCRL-juo2-62L-7">
                    <mxGeometry relative="1" as="geometry"/>
                </mxCell>
                <mxCell id="K7z8mhnCCRL-juo2-62L-35" style="edgeStyle=none;html=1;entryX=0.981;entryY=0.867;entryDx=0;entryDy=0;entryPerimeter=0;fontSize=10;" edge="1" parent="9b1Kya3vGvgj5nDECEOc-1" source="K7z8mhnCCRL-juo2-62L-7" target="K7z8mhnCCRL-juo2-62L-2">
                    <mxGeometry relative="1" as="geometry"/>
                </mxCell>
                <mxCell id="K7z8mhnCCRL-juo2-62L-36" value="Display success message" style="edgeLabel;html=1;align=center;verticalAlign=middle;resizable=0;points=[];fontSize=10;" vertex="1" connectable="0" parent="K7z8mhnCCRL-juo2-62L-35">
                    <mxGeometry x="0.323" y="-4" relative="1" as="geometry">
                        <mxPoint x="24" y="-1" as="offset"/>
                    </mxGeometry>
                </mxCell>
                <mxCell id="K7z8mhnCCRL-juo2-62L-37" style="edgeStyle=none;html=1;entryX=-0.019;entryY=0.113;entryDx=0;entryDy=0;entryPerimeter=0;fontSize=10;" edge="1" parent="9b1Kya3vGvgj5nDECEOc-1" source="K7z8mhnCCRL-juo2-62L-3" target="K7z8mhnCCRL-juo2-62L-8">
                    <mxGeometry relative="1" as="geometry"/>
                </mxCell>
                <mxCell id="K7z8mhnCCRL-juo2-62L-38" value="Request to view virtual pantry" style="edgeLabel;html=1;align=center;verticalAlign=middle;resizable=0;points=[];fontSize=10;" vertex="1" connectable="0" parent="K7z8mhnCCRL-juo2-62L-37">
                    <mxGeometry x="-0.2124" y="-2" relative="1" as="geometry">
                        <mxPoint x="24" y="-14" as="offset"/>
                    </mxGeometry>
                </mxCell>
                <mxCell id="K7z8mhnCCRL-juo2-62L-39" style="edgeStyle=none;html=1;entryX=-0.119;entryY=0.213;entryDx=0;entryDy=0;entryPerimeter=0;fontSize=10;" edge="1" parent="9b1Kya3vGvgj5nDECEOc-1" source="K7z8mhnCCRL-juo2-62L-8" target="K7z8mhnCCRL-juo2-62L-13">
                    <mxGeometry relative="1" as="geometry"/>
                </mxCell>
                <mxCell id="K7z8mhnCCRL-juo2-62L-40" value="Forward request" style="edgeLabel;html=1;align=center;verticalAlign=middle;resizable=0;points=[];fontSize=10;" vertex="1" connectable="0" parent="K7z8mhnCCRL-juo2-62L-39">
                    <mxGeometry x="-0.1502" y="3" relative="1" as="geometry">
                        <mxPoint x="2" as="offset"/>
                    </mxGeometry>
                </mxCell>
                <mxCell id="K7z8mhnCCRL-juo2-62L-41" style="edgeStyle=none;html=1;entryX=-0.219;entryY=0.404;entryDx=0;entryDy=0;entryPerimeter=0;fontSize=10;" edge="1" parent="9b1Kya3vGvgj5nDECEOc-1" source="K7z8mhnCCRL-juo2-62L-13" target="K7z8mhnCCRL-juo2-62L-17">
                    <mxGeometry relative="1" as="geometry"/>
                </mxCell>
                <mxCell id="K7z8mhnCCRL-juo2-62L-42" value="Retrieve virtual pantry from database" style="edgeLabel;html=1;align=center;verticalAlign=middle;resizable=0;points=[];fontSize=10;" vertex="1" connectable="0" parent="K7z8mhnCCRL-juo2-62L-41">
                    <mxGeometry x="-0.0075" relative="1" as="geometry">
                        <mxPoint as="offset"/>
                    </mxGeometry>
                </mxCell>
                <mxCell id="K7z8mhnCCRL-juo2-62L-43" style="edgeStyle=none;html=1;entryX=0.981;entryY=0.64;entryDx=0;entryDy=0;entryPerimeter=0;fontSize=10;" edge="1" parent="9b1Kya3vGvgj5nDECEOc-1" source="K7z8mhnCCRL-juo2-62L-17" target="K7z8mhnCCRL-juo2-62L-13">
                    <mxGeometry relative="1" as="geometry"/>
                </mxCell>
                <mxCell id="K7z8mhnCCRL-juo2-62L-44" value="Return virtual pantry" style="edgeLabel;html=1;align=center;verticalAlign=middle;resizable=0;points=[];fontSize=10;" vertex="1" connectable="0" parent="K7z8mhnCCRL-juo2-62L-43">
                    <mxGeometry x="0.1856" y="-3" relative="1" as="geometry">
                        <mxPoint as="offset"/>
                    </mxGeometry>
                </mxCell>
                <mxCell id="K7z8mhnCCRL-juo2-62L-45" style="edgeStyle=none;html=1;entryX=1.081;entryY=0.804;entryDx=0;entryDy=0;entryPerimeter=0;fontSize=10;" edge="1" parent="9b1Kya3vGvgj5nDECEOc-1" source="K7z8mhnCCRL-juo2-62L-13" target="K7z8mhnCCRL-juo2-62L-8">
                    <mxGeometry relative="1" as="geometry"/>
                </mxCell>
                <mxCell id="K7z8mhnCCRL-juo2-62L-46" value="Return virtual pantry" style="edgeLabel;html=1;align=center;verticalAlign=middle;resizable=0;points=[];fontSize=10;" vertex="1" connectable="0" parent="K7z8mhnCCRL-juo2-62L-45">
                    <mxGeometry x="0.1363" y="-1" relative="1" as="geometry">
                        <mxPoint y="-7" as="offset"/>
                    </mxGeometry>
                </mxCell>
                <mxCell id="K7z8mhnCCRL-juo2-62L-47" style="edgeStyle=none;html=1;entryX=1.081;entryY=0.949;entryDx=0;entryDy=0;entryPerimeter=0;fontSize=10;" edge="1" parent="9b1Kya3vGvgj5nDECEOc-1" source="K7z8mhnCCRL-juo2-62L-8" target="K7z8mhnCCRL-juo2-62L-3">
                    <mxGeometry relative="1" as="geometry"/>
                </mxCell>
                <mxCell id="K7z8mhnCCRL-juo2-62L-48" value="Dispaly virtual pantry" style="edgeLabel;html=1;align=center;verticalAlign=middle;resizable=0;points=[];fontSize=10;" vertex="1" connectable="0" parent="K7z8mhnCCRL-juo2-62L-47">
                    <mxGeometry x="-0.0268" y="2" relative="1" as="geometry">
                        <mxPoint y="-6" as="offset"/>
                    </mxGeometry>
                </mxCell>
                <mxCell id="K7z8mhnCCRL-juo2-62L-49" style="edgeStyle=none;html=1;entryX=-0.019;entryY=0.167;entryDx=0;entryDy=0;entryPerimeter=0;fontSize=10;" edge="1" parent="9b1Kya3vGvgj5nDECEOc-1" source="K7z8mhnCCRL-juo2-62L-4" target="K7z8mhnCCRL-juo2-62L-9">
                    <mxGeometry relative="1" as="geometry"/>
                </mxCell>
                <mxCell id="K7z8mhnCCRL-juo2-62L-50" value="Request to remove an item from&amp;nbsp;&lt;br&gt;virtual pantry" style="edgeLabel;html=1;align=center;verticalAlign=middle;resizable=0;points=[];fontSize=10;" vertex="1" connectable="0" parent="K7z8mhnCCRL-juo2-62L-49">
                    <mxGeometry x="-0.1457" y="2" relative="1" as="geometry">
                        <mxPoint x="8" as="offset"/>
                    </mxGeometry>
                </mxCell>
                <mxCell id="K7z8mhnCCRL-juo2-62L-51" style="edgeStyle=none;html=1;entryX=-0.119;entryY=0.295;entryDx=0;entryDy=0;entryPerimeter=0;fontSize=10;" edge="1" parent="9b1Kya3vGvgj5nDECEOc-1" source="K7z8mhnCCRL-juo2-62L-9" target="K7z8mhnCCRL-juo2-62L-14">
                    <mxGeometry relative="1" as="geometry"/>
                </mxCell>
                <mxCell id="K7z8mhnCCRL-juo2-62L-52" value="Forward request" style="edgeLabel;html=1;align=center;verticalAlign=middle;resizable=0;points=[];fontSize=10;" vertex="1" connectable="0" parent="K7z8mhnCCRL-juo2-62L-51">
                    <mxGeometry x="0.0663" relative="1" as="geometry">
                        <mxPoint as="offset"/>
                    </mxGeometry>
                </mxCell>
                <mxCell id="K7z8mhnCCRL-juo2-62L-53" style="edgeStyle=none;html=1;entryX=-0.019;entryY=0.476;entryDx=0;entryDy=0;entryPerimeter=0;fontSize=10;" edge="1" parent="9b1Kya3vGvgj5nDECEOc-1" source="K7z8mhnCCRL-juo2-62L-14" target="K7z8mhnCCRL-juo2-62L-18">
                    <mxGeometry relative="1" as="geometry"/>
                </mxCell>
                <mxCell id="K7z8mhnCCRL-juo2-62L-54" value="Remove item from database" style="edgeLabel;html=1;align=center;verticalAlign=middle;resizable=0;points=[];fontSize=10;" vertex="1" connectable="0" parent="K7z8mhnCCRL-juo2-62L-53">
                    <mxGeometry x="-0.0531" y="3" relative="1" as="geometry">
                        <mxPoint as="offset"/>
                    </mxGeometry>
                </mxCell>
                <mxCell id="K7z8mhnCCRL-juo2-62L-55" style="edgeStyle=none;html=1;entryX=1.081;entryY=0.722;entryDx=0;entryDy=0;entryPerimeter=0;fontSize=10;" edge="1" parent="9b1Kya3vGvgj5nDECEOc-1" source="K7z8mhnCCRL-juo2-62L-18" target="K7z8mhnCCRL-juo2-62L-14">
                    <mxGeometry relative="1" as="geometry"/>
                </mxCell>
                <mxCell id="K7z8mhnCCRL-juo2-62L-56" value="Return success message" style="edgeLabel;html=1;align=center;verticalAlign=middle;resizable=0;points=[];fontSize=10;" vertex="1" connectable="0" parent="K7z8mhnCCRL-juo2-62L-55">
                    <mxGeometry x="0.1056" y="1" relative="1" as="geometry">
                        <mxPoint as="offset"/>
                    </mxGeometry>
                </mxCell>
                <mxCell id="K7z8mhnCCRL-juo2-62L-57" style="edgeStyle=none;html=1;entryX=1.181;entryY=0.867;entryDx=0;entryDy=0;entryPerimeter=0;fontSize=10;" edge="1" parent="9b1Kya3vGvgj5nDECEOc-1" source="K7z8mhnCCRL-juo2-62L-14" target="K7z8mhnCCRL-juo2-62L-9">
                    <mxGeometry relative="1" as="geometry"/>
                </mxCell>
                <mxCell id="K7z8mhnCCRL-juo2-62L-58" value="Return success message" style="edgeLabel;html=1;align=center;verticalAlign=middle;resizable=0;points=[];fontSize=10;" vertex="1" connectable="0" parent="K7z8mhnCCRL-juo2-62L-57">
                    <mxGeometry x="0.3478" y="-1" relative="1" as="geometry">
                        <mxPoint x="25" y="-4" as="offset"/>
                    </mxGeometry>
                </mxCell>
                <mxCell id="K7z8mhnCCRL-juo2-62L-59" style="edgeStyle=none;html=1;entryX=0.881;entryY=0.967;entryDx=0;entryDy=0;entryPerimeter=0;fontSize=10;" edge="1" parent="9b1Kya3vGvgj5nDECEOc-1" source="K7z8mhnCCRL-juo2-62L-9" target="K7z8mhnCCRL-juo2-62L-4">
                    <mxGeometry relative="1" as="geometry"/>
                </mxCell>
                <mxCell id="K7z8mhnCCRL-juo2-62L-60" value="Display success message" style="edgeLabel;html=1;align=center;verticalAlign=middle;resizable=0;points=[];fontSize=10;" vertex="1" connectable="0" parent="K7z8mhnCCRL-juo2-62L-59">
                    <mxGeometry x="0.1832" y="-4" relative="1" as="geometry">
                        <mxPoint x="12" y="-2" as="offset"/>
                    </mxGeometry>
                </mxCell>
            </root>
        </mxGraphModel>
    </diagram>
    <diagram id="BXHwQJsIU3P1ZGKCziLM" name="Receive Recommendations">
        <mxGraphModel dx="1243" dy="750" grid="1" gridSize="10" guides="1" tooltips="1" connect="1" arrows="1" fold="1" page="1" pageScale="1" pageWidth="827" pageHeight="1169" math="0" shadow="0">
            <root>
                <mxCell id="3EimVpr4PCbJHS8PJp3W-0"/>
                <mxCell id="3EimVpr4PCbJHS8PJp3W-1" parent="3EimVpr4PCbJHS8PJp3W-0"/>
                <mxCell id="3EimVpr4PCbJHS8PJp3W-2" value="" style="shape=umlLifeline;participant=umlActor;perimeter=lifelinePerimeter;whiteSpace=wrap;html=1;container=1;collapsible=0;recursiveResize=0;verticalAlign=top;spacingTop=36;outlineConnect=0;" parent="3EimVpr4PCbJHS8PJp3W-1" vertex="1">
                    <mxGeometry x="50" y="80" width="20" height="240" as="geometry"/>
                </mxCell>
                <mxCell id="3EimVpr4PCbJHS8PJp3W-3" value="" style="html=1;points=[];perimeter=orthogonalPerimeter;" parent="3EimVpr4PCbJHS8PJp3W-2" vertex="1">
                    <mxGeometry x="5" y="70" width="10" height="160" as="geometry"/>
                </mxCell>
                <mxCell id="3EimVpr4PCbJHS8PJp3W-4" value="Web Server" style="shape=umlLifeline;perimeter=lifelinePerimeter;whiteSpace=wrap;html=1;container=1;collapsible=0;recursiveResize=0;outlineConnect=0;" parent="3EimVpr4PCbJHS8PJp3W-1" vertex="1">
                    <mxGeometry x="200" y="80" width="100" height="240" as="geometry"/>
                </mxCell>
                <mxCell id="3EimVpr4PCbJHS8PJp3W-5" value="" style="html=1;points=[];perimeter=orthogonalPerimeter;" parent="3EimVpr4PCbJHS8PJp3W-4" vertex="1">
                    <mxGeometry x="45" y="70" width="10" height="160" as="geometry"/>
                </mxCell>
                <mxCell id="3EimVpr4PCbJHS8PJp3W-28" style="edgeStyle=none;html=1;entryX=0.977;entryY=0.798;entryDx=0;entryDy=0;entryPerimeter=0;fontSize=10;exitX=1.035;exitY=0.862;exitDx=0;exitDy=0;exitPerimeter=0;" parent="3EimVpr4PCbJHS8PJp3W-4" source="3EimVpr4PCbJHS8PJp3W-7" edge="1">
                    <mxGeometry relative="1" as="geometry">
                        <mxPoint x="220" y="208" as="sourcePoint"/>
                        <mxPoint x="54.99999999999997" y="207.68000000000006" as="targetPoint"/>
                    </mxGeometry>
                </mxCell>
                <mxCell id="3EimVpr4PCbJHS8PJp3W-29" value="Return recommendations" style="edgeLabel;html=1;align=center;verticalAlign=middle;resizable=0;points=[];fontSize=10;" parent="3EimVpr4PCbJHS8PJp3W-28" vertex="1" connectable="0">
                    <mxGeometry x="0.446" y="-2" relative="1" as="geometry">
                        <mxPoint x="40" y="1" as="offset"/>
                    </mxGeometry>
                </mxCell>
                <mxCell id="3EimVpr4PCbJHS8PJp3W-6" value="Application Server" style="shape=umlLifeline;perimeter=lifelinePerimeter;whiteSpace=wrap;html=1;container=1;collapsible=0;recursiveResize=0;outlineConnect=0;" parent="3EimVpr4PCbJHS8PJp3W-1" vertex="1">
                    <mxGeometry x="360" y="80" width="100" height="240" as="geometry"/>
                </mxCell>
                <mxCell id="3EimVpr4PCbJHS8PJp3W-7" value="" style="html=1;points=[];perimeter=orthogonalPerimeter;" parent="3EimVpr4PCbJHS8PJp3W-6" vertex="1">
                    <mxGeometry x="44" y="70" width="10" height="160" as="geometry"/>
                </mxCell>
                <mxCell id="3EimVpr4PCbJHS8PJp3W-8" value="Database Server" style="shape=umlLifeline;perimeter=lifelinePerimeter;whiteSpace=wrap;html=1;container=1;collapsible=0;recursiveResize=0;outlineConnect=0;" parent="3EimVpr4PCbJHS8PJp3W-1" vertex="1">
                    <mxGeometry x="570" y="80" width="100" height="240" as="geometry"/>
                </mxCell>
                <mxCell id="3EimVpr4PCbJHS8PJp3W-9" value="" style="html=1;points=[];perimeter=orthogonalPerimeter;" parent="3EimVpr4PCbJHS8PJp3W-8" vertex="1">
                    <mxGeometry x="45" y="70" width="10" height="160" as="geometry"/>
                </mxCell>
                <mxCell id="3EimVpr4PCbJHS8PJp3W-10" value="Request to receive suggestions" style="edgeStyle=none;html=1;entryX=0.081;entryY=0.136;entryDx=0;entryDy=0;entryPerimeter=0;" parent="3EimVpr4PCbJHS8PJp3W-1" source="3EimVpr4PCbJHS8PJp3W-3" target="3EimVpr4PCbJHS8PJp3W-5" edge="1">
                    <mxGeometry relative="1" as="geometry"/>
                </mxCell>
                <mxCell id="3EimVpr4PCbJHS8PJp3W-11" style="edgeStyle=none;html=1;" parent="3EimVpr4PCbJHS8PJp3W-1" source="3EimVpr4PCbJHS8PJp3W-5" target="3EimVpr4PCbJHS8PJp3W-6" edge="1">
                    <mxGeometry relative="1" as="geometry">
                        <Array as="points">
                            <mxPoint x="345" y="176"/>
                        </Array>
                    </mxGeometry>
                </mxCell>
                <mxCell id="3EimVpr4PCbJHS8PJp3W-12" value="Forward request" style="edgeLabel;html=1;align=center;verticalAlign=middle;resizable=0;points=[];" parent="3EimVpr4PCbJHS8PJp3W-11" vertex="1" connectable="0">
                    <mxGeometry x="0.0746" relative="1" as="geometry">
                        <mxPoint x="-13" y="-6" as="offset"/>
                    </mxGeometry>
                </mxCell>
                <mxCell id="3EimVpr4PCbJHS8PJp3W-13" style="edgeStyle=none;html=1;entryX=-0.065;entryY=0.255;entryDx=0;entryDy=0;entryPerimeter=0;" parent="3EimVpr4PCbJHS8PJp3W-1" source="3EimVpr4PCbJHS8PJp3W-7" target="3EimVpr4PCbJHS8PJp3W-9" edge="1">
                    <mxGeometry relative="1" as="geometry">
                        <Array as="points">
                            <mxPoint x="510" y="190"/>
                        </Array>
                    </mxGeometry>
                </mxCell>
                <mxCell id="3EimVpr4PCbJHS8PJp3W-14" value="Retrieve ingredients from &lt;br&gt;user's virtual pantry" style="edgeLabel;html=1;align=center;verticalAlign=middle;resizable=0;points=[];" parent="3EimVpr4PCbJHS8PJp3W-13" vertex="1" connectable="0">
                    <mxGeometry x="-0.1139" y="-2" relative="1" as="geometry">
                        <mxPoint y="-21" as="offset"/>
                    </mxGeometry>
                </mxCell>
                <mxCell id="3EimVpr4PCbJHS8PJp3W-15" style="edgeStyle=none;html=1;" parent="3EimVpr4PCbJHS8PJp3W-1" source="3EimVpr4PCbJHS8PJp3W-7" target="3EimVpr4PCbJHS8PJp3W-4" edge="1">
                    <mxGeometry relative="1" as="geometry">
                        <Array as="points">
                            <mxPoint x="340" y="210"/>
                        </Array>
                    </mxGeometry>
                </mxCell>
                <mxCell id="3EimVpr4PCbJHS8PJp3W-16" value="Return ingredients" style="edgeLabel;html=1;align=center;verticalAlign=middle;resizable=0;points=[];fontSize=10;" parent="3EimVpr4PCbJHS8PJp3W-15" vertex="1" connectable="0">
                    <mxGeometry x="0.4591" relative="1" as="geometry">
                        <mxPoint x="41" y="-5" as="offset"/>
                    </mxGeometry>
                </mxCell>
                <mxCell id="3EimVpr4PCbJHS8PJp3W-19" style="edgeStyle=none;html=1;fontSize=10;" parent="3EimVpr4PCbJHS8PJp3W-1" source="3EimVpr4PCbJHS8PJp3W-9" target="3EimVpr4PCbJHS8PJp3W-7" edge="1">
                    <mxGeometry relative="1" as="geometry">
                        <Array as="points">
                            <mxPoint x="520" y="200"/>
                        </Array>
                    </mxGeometry>
                </mxCell>
                <mxCell id="3EimVpr4PCbJHS8PJp3W-20" value="Return ingredients" style="edgeLabel;html=1;align=center;verticalAlign=middle;resizable=0;points=[];fontSize=10;" parent="3EimVpr4PCbJHS8PJp3W-19" vertex="1" connectable="0">
                    <mxGeometry x="0.1369" y="3" relative="1" as="geometry">
                        <mxPoint x="7" as="offset"/>
                    </mxGeometry>
                </mxCell>
                <mxCell id="3EimVpr4PCbJHS8PJp3W-21" style="edgeStyle=none;html=1;fontSize=10;" parent="3EimVpr4PCbJHS8PJp3W-1" source="3EimVpr4PCbJHS8PJp3W-5" target="3EimVpr4PCbJHS8PJp3W-6" edge="1">
                    <mxGeometry relative="1" as="geometry">
                        <Array as="points">
                            <mxPoint x="330" y="240"/>
                        </Array>
                    </mxGeometry>
                </mxCell>
                <mxCell id="3EimVpr4PCbJHS8PJp3W-22" value="Retrieve recommendations" style="edgeLabel;html=1;align=center;verticalAlign=middle;resizable=0;points=[];fontSize=10;" parent="3EimVpr4PCbJHS8PJp3W-21" vertex="1" connectable="0">
                    <mxGeometry x="-0.1577" y="3" relative="1" as="geometry">
                        <mxPoint x="12" y="-6" as="offset"/>
                    </mxGeometry>
                </mxCell>
                <mxCell id="3EimVpr4PCbJHS8PJp3W-23" style="edgeStyle=none;html=1;fontSize=10;" parent="3EimVpr4PCbJHS8PJp3W-1" edge="1">
                    <mxGeometry relative="1" as="geometry">
                        <mxPoint x="414" y="260" as="sourcePoint"/>
                        <mxPoint x="620" y="260" as="targetPoint"/>
                    </mxGeometry>
                </mxCell>
                <mxCell id="3EimVpr4PCbJHS8PJp3W-24" value="Retrieve recommendations" style="edgeLabel;html=1;align=center;verticalAlign=middle;resizable=0;points=[];fontSize=10;" parent="3EimVpr4PCbJHS8PJp3W-23" vertex="1" connectable="0">
                    <mxGeometry x="-0.0296" y="2" relative="1" as="geometry">
                        <mxPoint as="offset"/>
                    </mxGeometry>
                </mxCell>
                <mxCell id="3EimVpr4PCbJHS8PJp3W-26" style="edgeStyle=none;html=1;entryX=0.977;entryY=0.798;entryDx=0;entryDy=0;entryPerimeter=0;fontSize=10;" parent="3EimVpr4PCbJHS8PJp3W-1" source="3EimVpr4PCbJHS8PJp3W-9" target="3EimVpr4PCbJHS8PJp3W-7" edge="1">
                    <mxGeometry relative="1" as="geometry"/>
                </mxCell>
                <mxCell id="3EimVpr4PCbJHS8PJp3W-27" value="Return recommendations" style="edgeLabel;html=1;align=center;verticalAlign=middle;resizable=0;points=[];fontSize=10;" parent="3EimVpr4PCbJHS8PJp3W-26" vertex="1" connectable="0">
                    <mxGeometry x="0.446" y="-2" relative="1" as="geometry">
                        <mxPoint x="40" y="1" as="offset"/>
                    </mxGeometry>
                </mxCell>
                <mxCell id="3EimVpr4PCbJHS8PJp3W-30" style="edgeStyle=none;html=1;entryX=1.077;entryY=0.926;entryDx=0;entryDy=0;entryPerimeter=0;fontSize=10;" parent="3EimVpr4PCbJHS8PJp3W-1" source="3EimVpr4PCbJHS8PJp3W-5" target="3EimVpr4PCbJHS8PJp3W-3" edge="1">
                    <mxGeometry relative="1" as="geometry"/>
                </mxCell>
                <mxCell id="3EimVpr4PCbJHS8PJp3W-31" value="Display recommendations" style="edgeLabel;html=1;align=center;verticalAlign=middle;resizable=0;points=[];fontSize=10;" parent="3EimVpr4PCbJHS8PJp3W-30" vertex="1" connectable="0">
                    <mxGeometry x="0.12" y="1" relative="1" as="geometry">
                        <mxPoint x="6" y="-9" as="offset"/>
                    </mxGeometry>
                </mxCell>
            </root>
        </mxGraphModel>
    </diagram>
</mxfile>